<?xml version="1.0" encoding="UTF-8"?>
<svg width="94px" height="94px" viewBox="0 0 94 94" version="1.1" xmlns="http://www.w3.org/2000/svg" xmlns:xlink="http://www.w3.org/1999/xlink">
    <title>gold-coin</title>
    <g id="Page-1" stroke="none" stroke-width="1" fill="none" fill-rule="evenodd">
        <g id="Desktop-HD-Copy" transform="translate(-441.000000, -563.000000)" fill-rule="nonzero">
            <g id="gold-coin" transform="translate(441.000000, 563.000000)">
                <circle id="Oval" fill="#F8D34C" cx="47" cy="47" r="47"></circle>
                <path d="M47,4 C23.2517558,4 4,23.2517558 4,47 C4,70.7482442 23.2517558,90 47,90 C70.7482442,90 90,70.7482442 90,47 C90,35.5956909 85.4696559,24.6584727 77.4055916,16.5944084 C69.3415273,8.53034414 58.4043091,4 47,4 Z M47,85.9047619 C25.5134933,85.9047619 8.0952381,68.4865067 8.0952381,47 C8.0952381,25.5134933 25.5134933,8.0952381 47,8.0952381 C68.4865067,8.0952381 85.9047619,25.5134933 85.9047619,47 C85.9047619,57.3181844 81.8058791,67.2137628 74.509821,74.509821 C67.2137628,81.8058791 57.3181844,85.9047619 47,85.9047619 Z" id="Shape" fill="#BB991D"></path>
                <path d="M47,80 C45.8954305,80 45,79.1045695 45,78 L45,72 C45,70.8954305 45.8954305,70 47,70 C48.1045695,70 49,70.8954305 49,72 L49,78 C49,79.1045695 48.1045695,80 47,80 Z" id="Path" fill="#BB991D"></path>
                <path d="M77.901548,57.5894501 C77.5531439,58.6612462 76.4016878,59.2477974 75.3295891,58.8996048 L69.4977742,57.0078394 C68.7737313,56.8078764 68.2180434,56.2265059 68.0511051,55.4943086 C67.8841668,54.7621113 68.1329558,53.9974125 68.6987985,53.5035037 C69.2646413,53.009595 70.0560958,52.8662934 70.7592588,53.1304347 L76.5829088,55.0222 C77.6561168,55.3671111 78.2464789,56.5164832 77.901548,57.5894501 Z" id="Path" fill="#BB991D"></path>
                <path d="M66.1216412,20.3914933 C66.5791978,20.7085185 66.8859358,21.1869395 66.9740148,21.7209451 C67.0620939,22.2549508 66.9242559,22.8005375 66.5909863,23.2370393 L62.8447204,28.1638989 C62.1527061,29.0720312 60.822498,29.2713203 59.8736173,28.6090236 C58.9247367,27.9467268 58.7165054,26.6736425 59.4085197,25.7655101 L63.1547855,20.8325529 C63.8470146,19.9270033 65.1750088,19.7295807 66.1216412,20.3914933 L66.1216412,20.3914933 Z" id="Path" fill="#BB991D"></path>
                <path d="M27.8798461,20.3917321 C28.33668,20.0725437 28.90768,19.9405297 29.4665595,20.0248872 C30.025439,20.1092448 30.5261447,20.4030225 30.8579368,20.8412465 L34.5933135,25.7696326 C35.2841102,26.6784212 35.0736334,27.9506042 34.1232005,28.6111329 C33.1727677,29.2716615 31.8422882,29.0704071 31.1514915,28.1616186 L27.3990971,23.2250965 C26.7162023,22.3151571 26.931112,21.0485551 27.8798461,20.3917321 Z" id="Path" fill="#BB991D"></path>
                <path d="M16.100482,57.5932338 C15.7519884,56.5214661 16.3390466,55.3703655 17.411769,55.0220689 L23.2390301,53.1304262 C23.9426292,52.8663021 24.7345745,53.0095944 25.3007681,53.5034711 C25.8669617,53.9973478 26.115905,54.7619971 25.9488632,55.4941469 C25.7818214,56.2262967 25.2257889,56.8076296 24.501297,57.0075796 L18.6740358,58.8992224 C17.6024608,59.2477406 16.4508239,58.6633252 16.100482,57.5932338 L16.100482,57.5932338 Z" id="Path" fill="#BB991D"></path>
                <path d="M60.1466787,66 C59.8150156,66 59.4884497,65.9181892 59.1955699,65.7622154 L47.5040908,59.612615 L35.8126117,65.7622154 C35.1240393,66.1237552 34.2904892,66.0628721 33.6614993,65.6050968 C33.0325095,65.1473214 32.7168113,64.3717878 32.8467886,63.6037057 L35.0803602,50.5563033 L25.6183619,41.3196034 C25.0604794,40.7750724 24.8595389,39.9602956 25.1000636,39.2179993 C25.3405883,38.4757029 25.9808425,37.9346898 26.7515109,37.8225305 L39.8215863,35.9202541 L45.6673259,24.0515252 C46.0489271,23.4001104 46.7462683,23 47.5,23 C48.2537317,23 48.9510729,23.4001104 49.3326741,24.0515252 L55.1784137,35.9202541 L68.2484891,37.8225305 C69.0191575,37.9346898 69.6594117,38.4757029 69.8999364,39.2179993 C70.1404611,39.9602956 69.9395206,40.7750724 69.3816381,41.3196034 L59.9237306,50.5563033 L62.1573022,63.6037057 C62.2591581,64.1990321 62.093844,64.8090755 61.7054918,65.2709802 C61.3171397,65.732885 60.7452847,66 60.1425879,66 L60.1466787,66 Z" id="Path" fill="#BB991D"></path>
            </g>
        </g>
    </g>
</svg>