<?xml version="1.0" encoding="UTF-8"?>
<svg width="588px" height="129px" viewBox="0 0 588 129" version="1.1" xmlns="http://www.w3.org/2000/svg" xmlns:xlink="http://www.w3.org/1999/xlink">
    <title>Group 11</title>
    <g id="Page-1" stroke="none" stroke-width="1" fill="none" fill-rule="evenodd">
        <g id="Desktop-HD-Copy-4" transform="translate(-622.000000, -570.000000)" fill-rule="nonzero">
            <g id="Group-11" transform="translate(622.240000, 570.800000)">
                <path d="M14,128.2 C16.6133333,128.2 23.76,125.933333 35.44,121.4 C47.12,116.866667 52.96,114.173333 52.96,113.32 L52.96,113.32 L52.96,77.48 C52.96,75.56 51.8933333,73.5066667 49.76,71.32 C47.6266667,69.1333333 45.44,67.56 43.2,66.6 L43.2,66.6 L27.04,75.72 L27.04,79.24 C31.4133333,80.0933333 33.6,83.7733333 33.6,90.28 L33.6,90.28 L33.6,110.92 C31.4666667,112.626667 29.3866667,113.48 27.36,113.48 C21.92,113.48 19.2,109.533333 19.2,101.64 L19.2,101.64 L19.2,22.12 C20.0533333,21.0533333 21.0133333,20.52 22.08,20.52 C23.5733333,20.52 25.5466667,24.8666667 28,33.56 C30.4533333,42.2533333 32.48,46.6 34.08,46.6 C34.5066667,46.6 37.52,45.24 43.12,42.52 C48.72,39.8 52.6933333,37.9066667 55.04,36.84 L55.04,36.84 L55.04,33.64 C51.6266667,33.64 49.3066667,32.6 48.08,30.52 C46.8533333,28.44 45.68,25.2133333 44.56,20.84 C43.44,16.4666667 42.4533333,12.7333333 41.6,9.64 C40.7466667,6.54666667 40,5 39.36,5 C37.5466667,5 30.5333333,7.26666667 18.32,11.8 C6.10666667,16.3333333 0,18.9733333 0,19.72 L0,19.72 L0,104.84 C0,111.24 1.68,116.733333 5.04,121.32 C8.4,125.906667 11.3866667,128.2 14,128.2 Z M107.16,128.2 L124.6,118.44 L124.6,114.92 C121.933333,114.28 119.96,113.186667 118.68,111.64 C117.4,110.093333 116.76,107.346667 116.76,103.4 L116.76,103.4 L116.76,58.12 C116.76,53.2133333 115.16,48.4666667 111.96,43.88 C108.76,39.2933333 105.4,37 101.88,37 C99.8533333,37 90.5733333,39.9333333 74.04,45.8 L74.04,45.8 L74.04,50.6 C83.2133333,50.6 89.4,51.8 92.6,54.2 C95.8,56.6 97.4,60.84 97.4,66.92 L97.4,66.92 L88.92,69.64 C83.3733333,71.3466667 77.8266667,73.5333333 72.28,76.2 C66.7333333,78.8666667 63.96,81.0533333 63.96,82.76 L63.96,82.76 L63.96,109 C63.96,113.48 65.56,117.48 68.76,121 C69.9333333,122.386667 71.2933333,123.693333 72.84,124.92 C74.3866667,126.146667 75.48,126.946667 76.12,127.32 C76.76,127.693333 77.24,127.986667 77.56,128.2 L77.56,128.2 L97.56,117.48 C97.56,119.293333 98.5733333,121.293333 100.6,123.48 C102.626667,125.666667 104.813333,127.24 107.16,128.2 L107.16,128.2 Z M91.16,112.68 C89.1333333,112.68 87.2933333,111.8 85.64,110.04 C83.9866667,108.28 83.16,106.013333 83.16,103.24 L83.16,103.24 L83.16,92.84 C83.16,86.5466667 84.5466667,82.12 87.32,79.56 C88.8133333,78.1733333 90.2266667,77.16 91.56,76.52 C92.8933333,75.88 94.8933333,75.08 97.56,74.12 L97.56,74.12 L97.56,110.28 C95.32,111.88 93.1866667,112.68 91.16,112.68 Z M209.36,128.2 L226.8,118.44 L226.8,114.92 C221.573333,113.853333 218.96,110.386667 218.96,104.52 L218.96,104.52 L218.96,56.04 C218.96,52.3066667 217.466667,48.2 214.48,43.72 C211.493333,39.24 208.293333,37 204.88,37 C203.173333,37 198.16,39.1333333 189.84,43.4 C185.68,45.5333333 183.493333,46.6533333 183.28,46.76 C182.106667,44.0933333 180.373333,41.8 178.08,39.88 C175.786667,37.96 173.706667,37 171.84,37 C169.973333,37 165.093333,39.24 157.2,43.72 C154.213333,45.4266667 152.4,46.44 151.76,46.76 C151.76,44.52 150.88,42.5466667 149.12,40.84 C147.36,39.1333333 145.946667,38.0933333 144.88,37.72 C143.813333,37.3466667 142.906667,37.0533333 142.16,36.84 C131.28,43.24 125.466667,46.4933333 124.72,46.6 L124.72,46.6 L124.72,50.12 C126.96,50.12 128.826667,51.4 130.32,53.96 C131.813333,56.52 132.56,59.56 132.56,63.08 L132.56,63.08 L132.56,117.32 C132.56,119.24 133.573333,121.293333 135.6,123.48 C137.626667,125.666667 139.813333,127.24 142.16,128.2 L142.16,128.2 L158.32,119.08 L158.32,115.56 C153.946667,114.706667 151.76,111.026667 151.76,104.52 L151.76,104.52 L151.76,53.48 L157.36,52.52 C163.226667,52.52 166.16,58.6533333 166.16,70.92 L166.16,70.92 L166.16,117.32 C166.16,119.24 167.173333,121.293333 169.2,123.48 C171.226667,125.666667 173.413333,127.24 175.76,128.2 L175.76,128.2 L193.2,118.44 L193.2,114.92 C187.973333,113.853333 185.36,110.386667 185.36,104.52 L185.36,104.52 L185.36,53.8 L190,52.84 C192.88,52.84 195.226667,53.9866667 197.04,56.28 C198.853333,58.5733333 199.76,63.1866667 199.76,70.12 L199.76,70.12 L199.76,117.32 C199.76,119.24 200.773333,121.293333 202.8,123.48 C204.826667,125.666667 207.013333,127.24 209.36,128.2 L209.36,128.2 Z M249.48,128.2 C250.653333,128.2 259.986667,125.266667 277.48,119.4 L277.48,119.4 L277.48,114.76 C272.573333,114.76 268.36,114.333333 264.84,113.48 C257.693333,111.56 254.12,106.493333 254.12,98.28 C254.546667,98.28 257.4,97.4 262.68,95.64 C267.96,93.88 273.426667,91.6133333 279.08,88.84 C284.733333,86.0666667 287.56,83.72 287.56,81.8 L287.56,81.8 L287.56,54.92 C287.56,52.1466667 286.493333,49.2933333 284.36,46.36 C282.226667,43.4266667 280.093333,41.1333333 277.96,39.48 C275.826667,37.8266667 274.493333,37 273.96,37 C272.146667,37 265.16,39.2666667 253,43.8 C240.84,48.3333333 234.76,50.9733333 234.76,51.72 L234.76,51.72 L234.76,105.48 C234.76,111.56 236.413333,116.866667 239.72,121.4 C243.026667,125.933333 246.28,128.2 249.48,128.2 Z M253.96,91.08 L253.96,54.12 C256.52,52.52 258.866667,51.72 261,51.72 C263.133333,51.72 264.893333,52.76 266.28,54.84 C267.666667,56.92 268.36,59.4533333 268.36,62.44 L268.36,62.44 L268.36,73.8 C268.36,82.6533333 263.56,88.4133333 253.96,91.08 L253.96,91.08 Z M346.76,128.2 C349.373333,128.2 356.52,125.933333 368.2,121.4 C379.88,116.866667 385.72,114.173333 385.72,113.32 L385.72,113.32 L385.72,55.4 C385.72,51.88 383.88,47.9333333 380.2,43.56 C376.52,39.1866667 373.773333,37 371.96,37 C370.146667,37 363.16,39.2666667 351,43.8 C338.84,48.3333333 332.76,50.9733333 332.76,51.72 L332.76,51.72 L332.76,104.84 C332.76,111.24 334.44,116.733333 337.8,121.32 C341.16,125.906667 344.146667,128.2 346.76,128.2 Z M360.12,113.48 C354.68,113.48 351.96,109.533333 351.96,101.64 L351.96,101.64 L351.96,54.28 C353.986667,52.68 356.066667,51.88 358.2,51.88 C363.64,51.88 366.36,55.8266667 366.36,63.72 L366.36,63.72 L366.36,110.92 C364.226667,112.626667 362.146667,113.48 360.12,113.48 Z M415.28,128.2 C418.586667,128.2 425.946667,125.96 437.36,121.48 C448.773333,117 454.48,114.28 454.48,113.32 L454.48,113.32 L454.48,58.92 C454.48,53.48 452.906667,48.4666667 449.76,43.88 C446.613333,39.2933333 443.44,37 440.24,37 L440.24,37 L420.72,46.76 C420.4,45.16 419.306667,43.3466667 417.44,41.32 C415.573333,39.2933333 413.466667,37.8 411.12,36.84 L411.12,36.84 L393.68,46.6 L393.68,50.12 C398.906667,51.1866667 401.52,54.6533333 401.52,60.52 L401.52,60.52 L401.52,107.4 C401.52,111.24 402.986667,115.666667 405.92,120.68 C408.853333,125.693333 411.973333,128.2 415.28,128.2 Z M427.76,116.2 C426.053333,116.2 424.453333,115.293333 422.96,113.48 C421.466667,111.666667 420.72,109.426667 420.72,106.76 L420.72,106.76 L420.72,52.2 C426.266667,52.2 430.053333,53.2133333 432.08,55.24 C434.106667,57.2666667 435.12,61.6933333 435.12,68.52 L435.12,68.52 L435.12,113.8 C431.92,115.4 429.466667,116.2 427.76,116.2 Z M484.84,128.2 C486.013333,128.2 495.346667,125.266667 512.84,119.4 L512.84,119.4 L512.84,114.76 C507.933333,114.76 503.72,114.333333 500.2,113.48 C493.053333,111.56 489.48,106.493333 489.48,98.28 C489.906667,98.28 492.76,97.4 498.04,95.64 C503.32,93.88 508.786667,91.6133333 514.44,88.84 C520.093333,86.0666667 522.92,83.72 522.92,81.8 L522.92,81.8 L522.92,54.92 C522.92,52.1466667 521.853333,49.2933333 519.72,46.36 C517.586667,43.4266667 515.453333,41.1333333 513.32,39.48 C511.186667,37.8266667 509.853333,37 509.32,37 C507.506667,37 500.52,39.2666667 488.36,43.8 C476.2,48.3333333 470.12,50.9733333 470.12,51.72 L470.12,51.72 L470.12,105.48 C470.12,111.56 471.773333,116.866667 475.08,121.4 C478.386667,125.933333 481.64,128.2 484.84,128.2 Z M489.32,91.08 L489.32,54.12 C491.88,52.52 494.226667,51.72 496.36,51.72 C498.493333,51.72 500.253333,52.76 501.64,54.84 C503.026667,56.92 503.72,59.4533333 503.72,62.44 L503.72,62.44 L503.72,73.8 C503.72,82.6533333 498.92,88.4133333 489.32,91.08 L489.32,91.08 Z M547.52,128.2 L563.68,119.08 L563.68,115.56 C559.306667,114.706667 557.12,111.026667 557.12,104.52 L557.12,104.52 L557.12,53.48 C560.96,53.48 563.84,54.1733333 565.76,55.56 C567.466667,56.84 568.32,61.96 568.32,70.92 L568.32,70.92 L571.04,73.16 L587.52,63.88 L587.52,56.04 C587.52,52.3066667 586.026667,48.2 583.04,43.72 C580.053333,39.24 576.853333,37 573.44,37 C572.16,37 569.253333,38.5733333 564.72,41.72 C560.186667,44.8666667 557.653333,46.5466667 557.12,46.76 C557.12,44.6266667 556.24,42.7066667 554.48,41 C552.72,39.2933333 551.333333,38.2533333 550.32,37.88 C549.306667,37.5066667 548.426667,37.2133333 547.68,37 L547.68,37 L530.08,46.6 L530.08,50.12 C532,50.12 533.786667,51.2933333 535.44,53.64 C537.093333,55.9866667 537.92,59.5066667 537.92,64.2 L537.92,64.2 L537.92,117.32 C537.92,119.24 538.933333,121.293333 540.96,123.48 C542.986667,125.666667 545.173333,127.24 547.52,128.2 L547.52,128.2 Z" id="Gameover" fill="#BE9C1F"></path>
                <path d="M14,123.2 C16.6133333,123.2 23.76,120.933333 35.44,116.4 C47.12,111.866667 52.96,109.173333 52.96,108.32 L52.96,108.32 L52.96,72.48 C52.96,70.56 51.8933333,68.5066667 49.76,66.32 C47.6266667,64.1333333 45.44,62.56 43.2,61.6 L43.2,61.6 L27.04,70.72 L27.04,74.24 C31.4133333,75.0933333 33.6,78.7733333 33.6,85.28 L33.6,85.28 L33.6,105.92 C31.4666667,107.626667 29.3866667,108.48 27.36,108.48 C21.92,108.48 19.2,104.533333 19.2,96.64 L19.2,96.64 L19.2,17.12 C20.0533333,16.0533333 21.0133333,15.52 22.08,15.52 C23.5733333,15.52 25.5466667,19.8666667 28,28.56 C30.4533333,37.2533333 32.48,41.6 34.08,41.6 C34.5066667,41.6 37.52,40.24 43.12,37.52 C48.72,34.8 52.6933333,32.9066667 55.04,31.84 L55.04,31.84 L55.04,28.64 C51.6266667,28.64 49.3066667,27.6 48.08,25.52 C46.8533333,23.44 45.68,20.2133333 44.56,15.84 C43.44,11.4666667 42.4533333,7.73333333 41.6,4.64 C40.7466667,1.54666667 40,0 39.36,0 C37.5466667,0 30.5333333,2.26666667 18.32,6.8 C6.10666667,11.3333333 0,13.9733333 0,14.72 L0,14.72 L0,99.84 C0,106.24 1.68,111.733333 5.04,116.32 C8.4,120.906667 11.3866667,123.2 14,123.2 Z M107.16,123.2 L124.6,113.44 L124.6,109.92 C121.933333,109.28 119.96,108.186667 118.68,106.64 C117.4,105.093333 116.76,102.346667 116.76,98.4 L116.76,98.4 L116.76,53.12 C116.76,48.2133333 115.16,43.4666667 111.96,38.88 C108.76,34.2933333 105.4,32 101.88,32 C99.8533333,32 90.5733333,34.9333333 74.04,40.8 L74.04,40.8 L74.04,45.6 C83.2133333,45.6 89.4,46.8 92.6,49.2 C95.8,51.6 97.4,55.84 97.4,61.92 L97.4,61.92 L88.92,64.64 C83.3733333,66.3466667 77.8266667,68.5333333 72.28,71.2 C66.7333333,73.8666667 63.96,76.0533333 63.96,77.76 L63.96,77.76 L63.96,104 C63.96,108.48 65.56,112.48 68.76,116 C69.9333333,117.386667 71.2933333,118.693333 72.84,119.92 C74.3866667,121.146667 75.48,121.946667 76.12,122.32 C76.76,122.693333 77.24,122.986667 77.56,123.2 L77.56,123.2 L97.56,112.48 C97.56,114.293333 98.5733333,116.293333 100.6,118.48 C102.626667,120.666667 104.813333,122.24 107.16,123.2 L107.16,123.2 Z M91.16,107.68 C89.1333333,107.68 87.2933333,106.8 85.64,105.04 C83.9866667,103.28 83.16,101.013333 83.16,98.24 L83.16,98.24 L83.16,87.84 C83.16,81.5466667 84.5466667,77.12 87.32,74.56 C88.8133333,73.1733333 90.2266667,72.16 91.56,71.52 C92.8933333,70.88 94.8933333,70.08 97.56,69.12 L97.56,69.12 L97.56,105.28 C95.32,106.88 93.1866667,107.68 91.16,107.68 Z M209.36,123.2 L226.8,113.44 L226.8,109.92 C221.573333,108.853333 218.96,105.386667 218.96,99.52 L218.96,99.52 L218.96,51.04 C218.96,47.3066667 217.466667,43.2 214.48,38.72 C211.493333,34.24 208.293333,32 204.88,32 C203.173333,32 198.16,34.1333333 189.84,38.4 C185.68,40.5333333 183.493333,41.6533333 183.28,41.76 C182.106667,39.0933333 180.373333,36.8 178.08,34.88 C175.786667,32.96 173.706667,32 171.84,32 C169.973333,32 165.093333,34.24 157.2,38.72 C154.213333,40.4266667 152.4,41.44 151.76,41.76 C151.76,39.52 150.88,37.5466667 149.12,35.84 C147.36,34.1333333 145.946667,33.0933333 144.88,32.72 C143.813333,32.3466667 142.906667,32.0533333 142.16,31.84 C131.28,38.24 125.466667,41.4933333 124.72,41.6 L124.72,41.6 L124.72,45.12 C126.96,45.12 128.826667,46.4 130.32,48.96 C131.813333,51.52 132.56,54.56 132.56,58.08 L132.56,58.08 L132.56,112.32 C132.56,114.24 133.573333,116.293333 135.6,118.48 C137.626667,120.666667 139.813333,122.24 142.16,123.2 L142.16,123.2 L158.32,114.08 L158.32,110.56 C153.946667,109.706667 151.76,106.026667 151.76,99.52 L151.76,99.52 L151.76,48.48 L157.36,47.52 C163.226667,47.52 166.16,53.6533333 166.16,65.92 L166.16,65.92 L166.16,112.32 C166.16,114.24 167.173333,116.293333 169.2,118.48 C171.226667,120.666667 173.413333,122.24 175.76,123.2 L175.76,123.2 L193.2,113.44 L193.2,109.92 C187.973333,108.853333 185.36,105.386667 185.36,99.52 L185.36,99.52 L185.36,48.8 L190,47.84 C192.88,47.84 195.226667,48.9866667 197.04,51.28 C198.853333,53.5733333 199.76,58.1866667 199.76,65.12 L199.76,65.12 L199.76,112.32 C199.76,114.24 200.773333,116.293333 202.8,118.48 C204.826667,120.666667 207.013333,122.24 209.36,123.2 L209.36,123.2 Z M249.48,123.2 C250.653333,123.2 259.986667,120.266667 277.48,114.4 L277.48,114.4 L277.48,109.76 C272.573333,109.76 268.36,109.333333 264.84,108.48 C257.693333,106.56 254.12,101.493333 254.12,93.28 C254.546667,93.28 257.4,92.4 262.68,90.64 C267.96,88.88 273.426667,86.6133333 279.08,83.84 C284.733333,81.0666667 287.56,78.72 287.56,76.8 L287.56,76.8 L287.56,49.92 C287.56,47.1466667 286.493333,44.2933333 284.36,41.36 C282.226667,38.4266667 280.093333,36.1333333 277.96,34.48 C275.826667,32.8266667 274.493333,32 273.96,32 C272.146667,32 265.16,34.2666667 253,38.8 C240.84,43.3333333 234.76,45.9733333 234.76,46.72 L234.76,46.72 L234.76,100.48 C234.76,106.56 236.413333,111.866667 239.72,116.4 C243.026667,120.933333 246.28,123.2 249.48,123.2 Z M253.96,86.08 L253.96,49.12 C256.52,47.52 258.866667,46.72 261,46.72 C263.133333,46.72 264.893333,47.76 266.28,49.84 C267.666667,51.92 268.36,54.4533333 268.36,57.44 L268.36,57.44 L268.36,68.8 C268.36,77.6533333 263.56,83.4133333 253.96,86.08 L253.96,86.08 Z M346.76,123.2 C349.373333,123.2 356.52,120.933333 368.2,116.4 C379.88,111.866667 385.72,109.173333 385.72,108.32 L385.72,108.32 L385.72,50.4 C385.72,46.88 383.88,42.9333333 380.2,38.56 C376.52,34.1866667 373.773333,32 371.96,32 C370.146667,32 363.16,34.2666667 351,38.8 C338.84,43.3333333 332.76,45.9733333 332.76,46.72 L332.76,46.72 L332.76,99.84 C332.76,106.24 334.44,111.733333 337.8,116.32 C341.16,120.906667 344.146667,123.2 346.76,123.2 Z M360.12,108.48 C354.68,108.48 351.96,104.533333 351.96,96.64 L351.96,96.64 L351.96,49.28 C353.986667,47.68 356.066667,46.88 358.2,46.88 C363.64,46.88 366.36,50.8266667 366.36,58.72 L366.36,58.72 L366.36,105.92 C364.226667,107.626667 362.146667,108.48 360.12,108.48 Z M415.28,123.2 C418.586667,123.2 425.946667,120.96 437.36,116.48 C448.773333,112 454.48,109.28 454.48,108.32 L454.48,108.32 L454.48,53.92 C454.48,48.48 452.906667,43.4666667 449.76,38.88 C446.613333,34.2933333 443.44,32 440.24,32 L440.24,32 L420.72,41.76 C420.4,40.16 419.306667,38.3466667 417.44,36.32 C415.573333,34.2933333 413.466667,32.8 411.12,31.84 L411.12,31.84 L393.68,41.6 L393.68,45.12 C398.906667,46.1866667 401.52,49.6533333 401.52,55.52 L401.52,55.52 L401.52,102.4 C401.52,106.24 402.986667,110.666667 405.92,115.68 C408.853333,120.693333 411.973333,123.2 415.28,123.2 Z M427.76,111.2 C426.053333,111.2 424.453333,110.293333 422.96,108.48 C421.466667,106.666667 420.72,104.426667 420.72,101.76 L420.72,101.76 L420.72,47.2 C426.266667,47.2 430.053333,48.2133333 432.08,50.24 C434.106667,52.2666667 435.12,56.6933333 435.12,63.52 L435.12,63.52 L435.12,108.8 C431.92,110.4 429.466667,111.2 427.76,111.2 Z M484.84,123.2 C486.013333,123.2 495.346667,120.266667 512.84,114.4 L512.84,114.4 L512.84,109.76 C507.933333,109.76 503.72,109.333333 500.2,108.48 C493.053333,106.56 489.48,101.493333 489.48,93.28 C489.906667,93.28 492.76,92.4 498.04,90.64 C503.32,88.88 508.786667,86.6133333 514.44,83.84 C520.093333,81.0666667 522.92,78.72 522.92,76.8 L522.92,76.8 L522.92,49.92 C522.92,47.1466667 521.853333,44.2933333 519.72,41.36 C517.586667,38.4266667 515.453333,36.1333333 513.32,34.48 C511.186667,32.8266667 509.853333,32 509.32,32 C507.506667,32 500.52,34.2666667 488.36,38.8 C476.2,43.3333333 470.12,45.9733333 470.12,46.72 L470.12,46.72 L470.12,100.48 C470.12,106.56 471.773333,111.866667 475.08,116.4 C478.386667,120.933333 481.64,123.2 484.84,123.2 Z M489.32,86.08 L489.32,49.12 C491.88,47.52 494.226667,46.72 496.36,46.72 C498.493333,46.72 500.253333,47.76 501.64,49.84 C503.026667,51.92 503.72,54.4533333 503.72,57.44 L503.72,57.44 L503.72,68.8 C503.72,77.6533333 498.92,83.4133333 489.32,86.08 L489.32,86.08 Z M547.52,123.2 L563.68,114.08 L563.68,110.56 C559.306667,109.706667 557.12,106.026667 557.12,99.52 L557.12,99.52 L557.12,48.48 C560.96,48.48 563.84,49.1733333 565.76,50.56 C567.466667,51.84 568.32,56.96 568.32,65.92 L568.32,65.92 L571.04,68.16 L587.52,58.88 L587.52,51.04 C587.52,47.3066667 586.026667,43.2 583.04,38.72 C580.053333,34.24 576.853333,32 573.44,32 C572.16,32 569.253333,33.5733333 564.72,36.72 C560.186667,39.8666667 557.653333,41.5466667 557.12,41.76 C557.12,39.6266667 556.24,37.7066667 554.48,36 C552.72,34.2933333 551.333333,33.2533333 550.32,32.88 C549.306667,32.5066667 548.426667,32.2133333 547.68,32 L547.68,32 L530.08,41.6 L530.08,45.12 C532,45.12 533.786667,46.2933333 535.44,48.64 C537.093333,50.9866667 537.92,54.5066667 537.92,59.2 L537.92,59.2 L537.92,112.32 C537.92,114.24 538.933333,116.293333 540.96,118.48 C542.986667,120.666667 545.173333,122.24 547.52,123.2 L547.52,123.2 Z" id="Gameover" fill="#F8D34C"></path>
            </g>
        </g>
    </g>
</svg>