<?xml version="1.0" encoding="UTF-8"?>
<svg width="50px" height="48px" viewBox="0 0 50 48" version="1.1" xmlns="http://www.w3.org/2000/svg" xmlns:xlink="http://www.w3.org/1999/xlink">
    <title>broken-heart</title>
    <g id="Page-1" stroke="none" stroke-width="1" fill="none" fill-rule="evenodd">
        <g id="Group-12-Copy" transform="translate(-165.000000, -3.000000)" fill-rule="nonzero">
            <g id="broken-heart" transform="translate(165.000000, 3.000000)">
                <path d="M35.8534091,0 L35.7238636,0 C31.5712695,-0.0113113982 27.6336465,1.85566272 25,5.08463591 C22.3688314,1.85691469 18.4341544,-0.0100474852 14.2840909,0 L14.1511364,0 C6.35952168,0.0331169575 0.0472813463,6.36971835 0,14.2058019 C0,27.6572647 23.2954545,46.9281708 24.2806818,47.7418871 C24.6991815,48.0860376 25.3008185,48.0860376 25.7193182,47.7418871 C26.7102273,46.9281708 50,27.6572647 50,14.2012305 C49.9539494,6.36715397 43.6430259,0.0318782609 35.8534091,0 Z" id="Path" fill="#ED7064"></path>
                <path d="M25.5,4.8357249 C24.7428395,3.98095204 23.8772131,3.21485262 22.9220714,2.55419818 L17,14.5081766 L27.9285714,22.4262168 L23.0714286,36 L34,21.2950682 L24.2857143,13.377028 L30.9290714,1 C28.8227828,1.86628985 26.9634754,3.1799199 25.5,4.8357249 Z" id="Path" fill="#C94D47"></path>
            </g>
        </g>
    </g>
</svg>