<?xml version="1.0" encoding="UTF-8"?>
<svg width="47px" height="69px" viewBox="0 0 47 69" version="1.1" xmlns="http://www.w3.org/2000/svg" xmlns:xlink="http://www.w3.org/1999/xlink">
    <title>Group 9</title>
    <g id="Page-1" stroke="none" stroke-width="1" fill="none" fill-rule="evenodd">
        <g id="Desktop-HD-Copy" transform="translate(-41.000000, -34.000000)">
            <g id="Group-9" transform="translate(41.000000, 34.000000)">
                <g id="gold-coin" transform="translate(0.000000, 23.000000)" fill-rule="nonzero">
                    <circle id="Oval" fill="#F8D34C" cx="23" cy="23" r="23"></circle>
                    <path d="M23,2 C11.4020203,2 2,11.4020203 2,23 C2,34.5979797 11.4020203,44 23,44 C34.5979797,44 44,34.5979797 44,23 C44,17.4304537 41.7875064,12.0890215 37.8492424,8.1507576 C33.9109785,4.21249365 28.5695463,2 23,2 Z M23,42 C12.5065898,42 4,33.4934102 4,23 C4,12.5065898 12.5065898,4 23,4 C33.4934102,4 42,12.5065898 42,23 C42,28.0391133 39.99822,32.8718377 36.4350288,36.4350288 C32.8718377,39.99822 28.0391133,42 23,42 Z" id="Shape" fill="#BB991D"></path>
                    <path d="M23,39 C22.4477153,39 22,38.5522847 22,38 L22,35 C22,34.4477153 22.4477153,34 23,34 C23.5522847,34 24,34.4477153 24,35 L24,38 C24,38.5522847 23.5522847,39 23,39 Z" id="Path" fill="#BB991D"></path>
                    <path d="M37.950774,27.2947251 C37.776572,27.8306231 37.2008439,28.1238987 36.6647945,27.9498024 L33.7488871,27.0039197 C33.3868656,26.9039382 33.1090217,26.6132529 33.0255525,26.2471543 C32.9420834,25.8810557 33.0664779,25.4987062 33.3493993,25.2517519 C33.6323206,25.0047975 34.0280479,24.9331467 34.3796294,25.0652173 L37.2914544,26.0111 C37.8280584,26.1835555 38.1232394,26.7582416 37.950774,27.2947251 Z" id="Path" fill="#BB991D"></path>
                    <path d="M32.5608206,10.173997 C32.7895989,10.3148971 32.9429679,10.5275287 32.9870074,10.7648645 C33.0310469,11.0022003 32.962128,11.2446833 32.7954931,11.4386841 L30.9223602,13.6283995 C30.5763531,14.0320139 29.911249,14.1205868 29.4368087,13.8262327 C28.9623684,13.5318786 28.8582527,12.9660633 29.2042598,12.562449 L31.0773928,10.3700235 C31.4235073,9.96755704 32.0875044,9.87981362 32.5608206,10.173997 L32.5608206,10.173997 Z" id="Path" fill="#BB991D"></path>
                    <path d="M13.439923,10.1741032 C13.66834,10.0322417 13.95384,9.97356876 14.2332797,10.011061 C14.5127195,10.0485532 14.7630723,10.1791211 14.9289684,10.3738873 L16.7966567,12.5642811 C17.1420551,12.9681872 17.0368167,13.5336019 16.5616003,13.8271702 C16.0863838,14.1207385 15.4211441,14.0312921 15.0757457,13.627386 L13.1995486,11.4333762 C12.8581012,11.0289587 12.965556,10.4660245 13.439923,10.1741032 Z" id="Path" fill="#BB991D"></path>
                    <path d="M8.05024101,27.2966169 C7.87599422,26.7607331 8.16952329,26.1851827 8.70588448,26.0110345 L11.6195151,25.0652131 C11.9713146,24.933151 12.3672873,25.0047972 12.6503841,25.2517356 C12.9334809,25.4986739 13.0579525,25.8809985 12.9744316,26.2470735 C12.8909107,26.6131484 12.6128945,26.9038148 12.2506485,27.0037898 L9.33701792,27.9496112 C8.8012304,28.1238703 8.22541197,27.8316626 8.05024101,27.2966169 L8.05024101,27.2966169 Z" id="Path" fill="#BB991D"></path>
                    <path d="M29.1828207,33 C29.0206743,33 28.8610199,32.9600459 28.7178342,32.8838727 L23.0019999,29.8805794 L17.2861657,32.8838727 C16.9495303,33.0604386 16.5420169,33.030705 16.2345108,32.8071403 C15.9270046,32.5835756 15.7726633,32.2048266 15.8362078,31.8297167 L16.9281761,25.4577295 L12.3023103,20.946783 C12.0295677,20.6808493 11.9313301,20.2829351 12.04892,19.9204182 C12.1665098,19.5579014 12.479523,19.2936857 12.8562942,19.2389103 L19.2461089,18.3098916 L22.104026,12.5135356 C22.2905866,12.1954027 22.631509,12 23,12 C23.368491,12 23.7094134,12.1954027 23.895974,12.5135356 L26.7538911,18.3098916 L33.1437058,19.2389103 C33.520477,19.2936857 33.8334902,19.5579014 33.95108,19.9204182 C34.0686699,20.2829351 33.9704323,20.6808493 33.6976897,20.946783 L29.0738238,25.4577295 L30.1657922,31.8297167 C30.2155884,32.1204575 30.1347682,32.4183857 29.9449071,32.6439671 C29.7550461,32.8695485 29.4754725,33 29.1808207,33 L29.1828207,33 Z" id="Path" fill="#BB991D"></path>
                </g>
                <g id="Group-2">
                    <path d="M11.6131389,25 C10.2105444,25 9,26.1805202 9,27.5963822 L9,29.4032583 C9,30.8191922 10.2105444,32 11.6131389,32 L34.3868611,32 C35.7893835,32 37,30.8191922 37,29.4032583 L37,27.5963822 C37,26.1805202 35.7893835,25 34.3868611,25 L11.6131389,25 Z" id="Fill-45" fill="#232323"></path>
                    <path d="M25.5507916,0 L25.2714273,2.23130562 C25.1590711,3.13104534 24.4166915,3.77997075 23.4999637,3.77997075 C22.5833085,3.77997075 21.8409289,3.13104534 21.728282,2.23130562 L21.4492084,0 L19.2547011,0.585233385 C14.4289072,1.87129471 11.7884635,5.36342927 9.46539335,8.47226147 C7.14232323,11.5813812 5.07623343,14.3690216 1.26615134,15.8179792 L0,16.2992638 L0,19.005456 C0,24.5087058 4.54054284,29 10.1041377,29 L36.8958623,29 C42.4594572,29 47,24.5087058 47,19.005456 L47,16.2992638 L45.7338487,15.8179792 C41.9237666,14.3690216 39.8576768,11.5813812 37.5346066,8.47226147 C35.2118272,5.36342927 32.5710928,1.87100716 27.7452262,0.584945837 L25.5507916,0 Z M18.6253319,4.98494336 C19.6456222,6.6113904 21.4659237,7.68689423 23.4999637,7.68689423 L23.5002544,7.68689423 C25.534367,7.68689423 27.3543778,6.6113904 28.3746681,4.98494336 C30.8291354,6.15756674 32.4507423,8.24143179 34.3581816,10.7942887 C36.4611905,13.6091024 38.8841894,16.9201532 43.0502357,18.9150219 L43.0502357,19.005456 C43.0502357,22.4116854 40.3396602,25.0930765 36.8958623,25.0930765 L10.1041377,25.0930765 C6.66055781,25.0930765 3.94976427,22.4116854 3.94976427,19.005456 L3.94976427,18.9150219 C8.11581062,16.9201532 10.5388095,13.60939 12.6418184,10.7945762 C14.5492577,8.24143179 16.1708646,6.15756674 18.6253319,4.98494336 Z" id="Fill-46" fill="#232323"></path>
                    <path d="M27.2269115,2 C26.9941134,3.89537207 25.3957404,5.31854654 23.4998185,5.31883905 C21.6042596,5.31883905 20.0058866,3.89566459 19.7727981,2.00029252 C11.4943455,4.24727154 10.7627772,14.0383696 2,17.4323127 L2,18.8200925 C2,23.3518585 5.62125589,27 10.1196243,27 L36.8800854,27 C41.3783812,27 45,23.3518585 45,18.8200925 L45,17.4323127 C36.2369324,14.0383696 35.5056545,4.24697902 27.2269115,2 Z" id="Fill-49" fill="#655656"></path>
                    <path d="M26.7292659,2 C26.496332,3.86782037 24.8970272,5.27059541 23,5.27059541 C21.1033359,5.27059541 19.5037406,3.86810864 19.2708067,2.00028827 C11.1520415,4.17071601 10.2864021,13.4816398 2,17 L6.17668482,17 C11.8435071,13.2699804 15.5821427,8.7697138 22.9997821,8.7697138 C30.4176394,8.7697138 34.156275,13.2699804 39.8230973,17 L44,17 C35.7135979,13.4816398 34.8480311,4.17042774 26.7292659,2 Z" id="Fill-50" fill="#907C75"></path>
                    <path d="M2,19 L2,19.1975464 C2,23.5201985 5.62125589,27 10.1196243,27 L36.8800854,27 C41.3783812,27 45,23.5201985 45,19.1975464 L45,19 C43.895824,22.1471396 40.8070204,24.4016235 37.1499773,24.4016235 L9.84965975,24.4016235 C6.19268928,24.4016235 3.10388562,22.1471396 2,19 Z" id="Fill-51" fill="#493D3D"></path>
                    <path d="M27.2243992,3.00056217 C26.9916242,4.82186526 25.3934104,6.18970478 23.4976773,6.18970478 C21.6023071,6.18970478 20.003803,4.82214635 19.7710281,3.00084326 C11.4934,5.1600129 10.7619045,14.568486 2,17.8297977 L2,19.1633446 C2,19.4460478 2.01560543,19.7252375 2.04536462,20 L2.05015513,20 C7.02865019,18.1501666 9.18205435,15.8440587 12.7842957,11.2305781 C14.742886,8.72222819 16.3167843,6.65827677 18.7852004,5.53941005 C19.825756,7.08018833 21.5988957,8.00875917 23.5,8.00875917 C25.401322,8.00875917 27.1745344,7.08018833 28.2150899,5.53941005 C30.6834334,6.65827677 32.2573318,8.72222819 34.2156318,11.2305781 C37.8181634,15.8440587 39.9715676,18.1501666 44.9500626,20 L44.9549257,19.9953621 C44.9846849,19.7216536 45,19.4441505 45,19.1627824 L45,17.8290247 C36.2378051,14.5679238 35.5063097,5.15923991 27.2286816,3 L27.2243992,3.00056217 Z" id="Fill-52" fill="#F4BF5B"></path>
                    <path d="M26.3087154,2 L26.2386439,2.56491045 C26.0358361,4.20724095 24.6511083,5.43371234 22.9999637,5.43371234 C21.3488917,5.43371234 19.9641639,4.20724095 19.7610656,2.56491045 L19.6915751,2.00029112 L19.1432751,2.14839634 C14.832756,3.31227781 12.4830028,6.44264736 10.1676681,9.58298763 C7.85197037,12.722964 5.55500674,15.8888497 1.31622915,17.5220828 L1,17.6440604 L1,19.3649194 C1,24.1401667 4.8513152,28 9.61566491,28 L36.3843351,28 C41.1486848,28 45,24.1401667 45,19.3649194 L45,17.6440604 L44.6837709,17.5220828 C40.4447028,15.8888497 38.1480296,12.722964 35.8326223,9.58269652 C33.5169246,6.44235625 31.1675344,3.31227781 26.8567249,2.14810523 L26.3087154,2 Z M27.0935155,3.25405463 C30.7500103,4.42390398 32.8257225,7.16876326 35.0389634,10.170314 C37.295409,13.230743 39.6910536,16.5338898 44.0134812,18.3127537 L44.0134812,19.3649194 C44.0134812,23.6093896 40.6194094,27.0112248 36.3843351,27.0112248 L9.61566491,27.0112248 C5.38059057,27.0112248 1.98680921,23.6093896 1.98680921,19.3649194 L1.98680921,18.3124626 C6.3089464,16.5338898 8.70459095,13.230743 10.9610366,10.1706051 C13.1742775,7.16905438 15.2499897,4.42419509 18.9064119,3.25434574 C19.3948788,5.09281559 21.0556083,6.4227787 22.9999637,6.4227787 C24.9443917,6.4227787 26.6051212,5.09252448 27.0935155,3.25405463 Z" id="Fill-53" fill="#232323"></path>
                    <path d="M17.9159975,5 L17.7240999,5.08781899 C15.2097953,6.23796671 13.6262804,8.3431635 11.6865898,10.8498687 C8.12145165,15.4562205 6.04884243,17.7046676 1.15703586,19.5383984 C1.03087829,19.5856099 0.967943356,19.7236613 1.01627739,19.8468889 C1.06461141,19.9698355 1.2059453,20.0313088 1.33210287,19.9840973 C6.30676777,18.1193138 8.50186635,15.7559292 12.0762829,11.1377042 C13.9687903,8.69226154 15.4814585,6.71710711 17.7584084,5.61143092 C18.8482257,7.10899057 20.6095407,8.01134823 22.4998904,8.01134823 C24.3904558,8.01134823 26.1517709,7.10899057 27.2415882,5.61143092 C29.5182504,6.71682609 31.0312062,8.69226154 32.9237136,11.1377042 C36.4981302,15.7559292 38.6932288,18.1193138 43.6681814,19.9840973 C43.7940513,20.0313088 43.9353852,19.9698355 43.9837192,19.8468889 C44.0320532,19.7236613 43.9691183,19.5856099 43.8432484,19.5383984 C38.9511541,17.7046676 36.8785449,15.4562205 33.3134068,10.8498687 C31.3734284,8.3431635 29.7902013,6.23768569 27.2758967,5.08781899 L27.0839991,5 L26.967983,5.17346007 C25.9818106,6.6465709 24.3019154,7.53410472 22.4998904,7.53410472 C20.6980812,7.53410472 19.0184737,6.6465709 18.0323012,5.17317904 L17.9159975,5 Z" id="Fill-54" fill="#232323"></path>
                    <path d="M22.9997368,12 C19.6862304,12.0002083 17,14.0147109 17,16.5 C17,18.9852891 19.6862304,21 22.9997368,21 C24.5912427,21 26.117539,20.5259504 27.2427999,19.6819921 C28.3680608,18.8380338 29,17.6935247 29,16.5 C29,15.3064753 28.36776,14.1619662 27.2424991,13.3180079 C26.1172382,12.4740496 24.5912427,12 22.9997368,12 Z M20.5068036,15.5771029 C21.4857754,15.5771029 22.0821388,16.1829949 22.0821388,16.9301021 C22.0821388,17.6775565 21.5298501,18.3547504 20.5068036,18.2833791 C19.5307652,18.2156181 18.7343353,17.6471473 18.7343353,16.9301021 C18.7343353,16.2537414 19.5281328,15.5771029 20.5068036,15.5771029 Z M25.4928955,15.5771029 C26.4715664,15.5771029 27.2656647,16.2542968 27.2656647,16.9303798 C27.2656647,17.6471473 26.4689339,18.2156181 25.4928955,18.2833791 C24.469849,18.3547504 23.9175603,17.6778342 23.9175603,16.9303798 C23.9175603,16.1829949 24.5139238,15.5771029 25.4928955,15.5771029 Z" id="Fill-55" fill="#FFFFFF"></path>
                    <path d="M23,20 C23.5541414,20 24,20.4991143 24,21.1192796 L24,21.8807204 C24,22.5006643 23.5541414,23 23,23 C22.4459246,23 22,22.5006643 22,21.8807204 L22,21.1192796 C22,20.4991143 22.4459246,20 23,20 Z" id="Fill-56" fill="#FFFFFF"></path>
                    <path d="M25,20 C25.5538117,20 26,20.499102 26,21.1192521 L26,21.8807479 C26,22.500898 25.5538117,23 25,23 C24.4458586,23 24,22.500898 24,21.8807479 L24,21.1192521 C24,20.499102 24.4458586,20 25,20 Z" id="Fill-57" fill="#FFFFFF"></path>
                    <path d="M21,20 C21.5541414,20 22,20.499102 22,21.1193259 L22,21.8807479 C22,22.5006028 21.5541414,23 21,23 C20.4461883,23 20,22.5006028 20,21.8807479 L20,21.1193259 C20,20.499102 20.4461883,20 21,20 Z" id="Fill-58" fill="#FFFFFF"></path>
                </g>
            </g>
        </g>
    </g>
</svg>