<?xml version="1.0" encoding="UTF-8"?>
<svg width="795px" height="245px" viewBox="0 0 795 245" version="1.1" xmlns="http://www.w3.org/2000/svg" xmlns:xlink="http://www.w3.org/1999/xlink">
    <title>Group 10</title>
    <g id="Page-1" stroke="none" stroke-width="1" fill="none" fill-rule="evenodd">
        <g id="Desktop-HD-Copy-3" transform="translate(-342.000000, -164.000000)">
            <g id="Group-9" transform="translate(350.000000, 164.656043)">
                <path d="M18.12,228.143957 C19.6133333,228.143957 21.0533333,226.19729 22.44,222.303957 C23.8266667,218.410623 25,212.863957 25.96,205.663957 C26.92,198.463957 27.4,190.703957 27.4,182.383957 L27.4,182.383957 L27.4,98.5439568 C27.4,94.2772902 27.9866667,90.6772902 29.16,87.7439568 C30.3333333,84.8106235 31.2933333,83.0506235 32.04,82.4639568 C32.7866667,81.8772902 33.3733333,81.4772902 33.8,81.2639568 L33.8,81.2639568 L31.24,76.1439568 C20.36,82.5439568 7.98666667,89.3706235 -5.88,96.6239568 L-5.88,96.6239568 L-5.88,101.103957 C3.50666667,101.103957 8.2,103.23729 8.2,107.503957 L8.2,107.503957 L8.2,181.263957 C8.2,193.103957 7.48,201.47729 6.04,206.383957 C4.6,211.290623 2.01333333,213.743957 -1.72,213.743957 L-1.72,213.743957 L-7.16,213.743957 L-7.16,218.543957 L-2.84,220.943957 C0.04,222.543957 3.58666667,224.143957 7.8,225.743957 C12.0133333,227.343957 15.4533333,228.143957 18.12,228.143957 Z M83.2,199.343957 L100.64,189.583957 L100.64,186.063957 C97.9733333,185.423957 96,184.330623 94.72,182.783957 C93.44,181.23729 92.8,178.490623 92.8,174.543957 L92.8,174.543957 L92.8,129.263957 C92.8,124.35729 91.2,119.610623 88,115.023957 C84.8,110.43729 81.44,108.143957 77.92,108.143957 C75.8933333,108.143957 66.6133333,111.07729 50.08,116.943957 L50.08,116.943957 L50.08,121.743957 C59.2533333,121.743957 65.44,122.943957 68.64,125.343957 C71.84,127.743957 73.44,131.983957 73.44,138.063957 L73.44,138.063957 L64.96,140.783957 C59.4133333,142.490623 53.8666667,144.67729 48.32,147.343957 C42.7733333,150.010623 40,152.19729 40,153.903957 L40,153.903957 L40,180.143957 C40,184.623957 41.6,188.623957 44.8,192.143957 C45.9733333,193.530623 47.3333333,194.83729 48.88,196.063957 C50.4266667,197.290623 51.52,198.090623 52.16,198.463957 C52.8,198.83729 53.28,199.130623 53.6,199.343957 L53.6,199.343957 L73.6,188.623957 C73.6,190.43729 74.6133333,192.43729 76.64,194.623957 C78.6666667,196.810623 80.8533333,198.383957 83.2,199.343957 L83.2,199.343957 Z M67.2,183.823957 C65.1733333,183.823957 63.3333333,182.943957 61.68,181.183957 C60.0266667,179.423957 59.2,177.15729 59.2,174.383957 L59.2,174.383957 L59.2,163.983957 C59.2,157.690623 60.5866667,153.263957 63.36,150.703957 C64.8533333,149.31729 66.2666667,148.303957 67.6,147.663957 C68.9333333,147.023957 70.9333333,146.223957 73.6,145.263957 L73.6,145.263957 L73.6,181.423957 C71.36,183.023957 69.2266667,183.823957 67.2,183.823957 Z M123.32,199.343957 C124.493333,199.343957 133.826667,196.410623 151.32,190.543957 L151.32,190.543957 L151.32,185.903957 C146.306667,185.903957 141.986667,185.47729 138.36,184.623957 C131.32,182.703957 127.8,177.63729 127.8,169.423957 L127.8,169.423957 L127.8,125.263957 C128.653333,124.19729 129.613333,123.663957 130.68,123.663957 C132.173333,123.663957 134.146667,128.010623 136.6,136.703957 C139.053333,145.39729 141.08,149.743957 142.68,149.743957 C143.106667,149.743957 146.12,148.383957 151.72,145.663957 C157.32,142.943957 161.293333,141.050623 163.64,139.983957 L163.64,139.983957 L163.64,136.783957 C160.226667,136.783957 157.906667,135.743957 156.68,133.663957 C155.453333,131.583957 154.28,128.35729 153.16,123.983957 C152.04,119.610623 151.053333,115.87729 150.2,112.783957 C149.346667,109.690623 148.6,108.143957 147.96,108.143957 C146.146667,108.143957 139.133333,110.410623 126.92,114.943957 C114.706667,119.47729 108.6,122.11729 108.6,122.863957 L108.6,122.863957 L108.6,176.623957 C108.6,182.703957 110.253333,188.010623 113.56,192.543957 C116.866667,197.07729 120.12,199.343957 123.32,199.343957 Z M216.24,199.343957 C218.8,199.343957 225.04,196.143957 234.96,189.743957 L234.96,189.743957 L234.96,185.103957 C232.506667,184.890623 230.266667,184.303957 228.24,183.343957 C221.84,180.67729 215.28,170.43729 208.56,152.623957 C219.653333,148.35729 225.2,145.63729 225.2,144.463957 L225.2,144.463957 L225.2,127.023957 C225.2,122.223957 223.386667,117.87729 219.76,113.983957 C216.133333,110.090623 212.826667,108.143957 209.84,108.143957 C208.026667,108.143957 202.16,111.343957 192.24,117.743957 L192.24,117.743957 L192.24,103.023957 C192.24,97.9039568 193.84,93.3172902 197.04,89.2639568 C198.32,87.6639568 199.92,86.0906235 201.84,84.5439568 C203.76,82.9972902 205.253333,81.9572902 206.32,81.4239568 L206.32,81.4239568 L203.76,76.3039568 C192.88,82.7039568 180.506667,89.5306235 166.64,96.7839568 L166.64,96.7839568 L166.64,101.263957 C168.986667,101.263957 170.64,101.87729 171.6,103.103957 C172.56,104.330623 173.04,106.383957 173.04,109.263957 L173.04,109.263957 L173.04,188.463957 C173.04,190.383957 174.053333,192.43729 176.08,194.623957 C178.106667,196.810623 180.293333,198.383957 182.64,199.343957 L182.64,199.343957 L198.8,190.223957 L198.8,186.703957 C194.426667,185.850623 192.24,182.170623 192.24,175.663957 L192.24,175.663957 L192.24,157.743957 C194.266667,164.67729 197.92,173.343957 203.2,183.743957 C208.48,194.143957 212.826667,199.343957 216.24,199.343957 Z M192.24,149.903957 L192.24,124.463957 L197.36,123.663957 C203.546667,123.663957 206.64,128.19729 206.64,137.263957 L206.64,137.263957 L206.64,144.463957 L203.76,145.903957 C198.213333,148.570623 194.373333,149.903957 192.24,149.903957 L192.24,149.903957 Z M281.44,199.343957 L297.6,190.223957 L297.6,186.703957 C293.226667,185.850623 291.04,182.170623 291.04,175.663957 L291.04,175.663957 L291.04,118.383957 L297.6,118.383957 L299.2,110.543957 L291.04,110.543957 L291.04,91.5039568 L286.56,91.5039568 C285.706667,96.4106235 283.013333,101.023957 278.48,105.343957 C273.946667,109.663957 270.08,111.823957 266.88,111.823957 L266.88,111.823957 L265.28,118.543957 L271.84,118.543957 L271.84,188.463957 C271.84,190.383957 272.853333,192.43729 274.88,194.623957 C276.906667,196.810623 279.093333,198.383957 281.44,199.343957 L281.44,199.343957 Z M350.04,199.343957 L367.48,189.583957 L367.48,186.063957 C362.253333,184.99729 359.64,181.530623 359.64,175.663957 L359.64,175.663957 L359.64,128.623957 C359.64,123.503957 358.093333,118.810623 355,114.543957 C351.906667,110.27729 348.653333,108.143957 345.24,108.143957 C343.426667,108.143957 337.026667,110.970623 326.04,116.623957 L326.04,116.623957 L326.04,103.023957 C326.04,97.9039568 327.64,93.3172902 330.84,89.2639568 C332.12,87.6639568 333.72,86.0906235 335.64,84.5439568 C337.56,82.9972902 339.053333,81.9572902 340.12,81.4239568 L340.12,81.4239568 L337.56,76.3039568 C326.68,82.7039568 314.306667,89.5306235 300.44,96.7839568 L300.44,96.7839568 L300.44,101.263957 C302.786667,101.263957 304.44,101.87729 305.4,103.103957 C306.36,104.330623 306.84,106.383957 306.84,109.263957 L306.84,109.263957 L306.84,188.463957 C306.84,190.383957 307.853333,192.43729 309.88,194.623957 C311.906667,196.810623 314.093333,198.383957 316.44,199.343957 L316.44,199.343957 L332.6,190.223957 L332.6,186.703957 C328.226667,185.850623 326.04,182.170623 326.04,175.663957 L326.04,175.663957 L326.04,123.343957 C329.986667,123.343957 332.866667,123.663957 334.68,124.303957 C338.52,125.690623 340.44,131.610623 340.44,142.063957 L340.44,142.063957 L340.44,188.463957 C340.44,190.383957 341.453333,192.43729 343.48,194.623957 C345.506667,196.810623 347.693333,198.383957 350.04,199.343957 L350.04,199.343957 Z M390.16,199.343957 C391.333333,199.343957 400.666667,196.410623 418.16,190.543957 L418.16,190.543957 L418.16,185.903957 C413.253333,185.903957 409.04,185.47729 405.52,184.623957 C398.373333,182.703957 394.8,177.63729 394.8,169.423957 C395.226667,169.423957 398.08,168.543957 403.36,166.783957 C408.64,165.023957 414.106667,162.75729 419.76,159.983957 C425.413333,157.210623 428.24,154.863957 428.24,152.943957 L428.24,152.943957 L428.24,126.063957 C428.24,123.290623 427.173333,120.43729 425.04,117.503957 C422.906667,114.570623 420.773333,112.27729 418.64,110.623957 C416.506667,108.970623 415.173333,108.143957 414.64,108.143957 C412.826667,108.143957 405.84,110.410623 393.68,114.943957 C381.52,119.47729 375.44,122.11729 375.44,122.863957 L375.44,122.863957 L375.44,176.623957 C375.44,182.703957 377.093333,188.010623 380.4,192.543957 C383.706667,197.07729 386.96,199.343957 390.16,199.343957 Z M394.64,162.223957 L394.64,125.263957 C397.2,123.663957 399.546667,122.863957 401.68,122.863957 C403.813333,122.863957 405.573333,123.903957 406.96,125.983957 C408.346667,128.063957 409.04,130.59729 409.04,133.583957 L409.04,133.583957 L409.04,144.943957 C409.04,153.79729 404.24,159.55729 394.64,162.223957 L394.64,162.223957 Z M466.4,204.463957 L499.2,190.703957 L499.2,185.743957 C496.533333,185.743957 494.773333,184.890623 493.92,183.183957 C493.066667,181.47729 492.64,178.650623 492.64,174.703957 L492.64,174.703957 L492.64,158.543957 C498.186667,156.83729 505.2,154.27729 513.68,150.863957 C522.16,147.450623 526.4,145.370623 526.4,144.623957 L526.4,144.623957 L526.4,94.8639568 C526.4,91.3439568 524.56,87.3972902 520.88,83.0239568 C517.2,78.6506235 514.506667,76.4639568 512.8,76.4639568 C512.141714,76.4639568 510.737567,76.9955813 508.587559,78.0588303 L508.097502,78.3038589 C504.664882,80.0380194 499.512381,82.9980521 492.64,87.1839568 C492.64,85.3706235 491.573333,83.3439568 489.44,81.1039568 C487.306667,78.8639568 485.173333,77.3172902 483.04,76.4639568 L483.04,76.4639568 L466.88,85.5839568 L466.88,89.1039568 C471.253333,89.9572902 473.44,93.6372902 473.44,100.143957 L473.44,100.143957 L473.44,183.023957 C473.44,188.463957 472.48,192.51729 470.56,195.183957 C468.426667,197.95729 466.186667,199.343957 463.84,199.343957 L463.84,199.343957 L466.4,204.463957 Z M492.64,151.023957 L492.64,94.2239568 C494.88,92.6239568 496.96,91.8239568 498.88,91.8239568 C504.32,91.8239568 507.04,95.7706235 507.04,103.663957 L507.04,103.663957 L507.04,142.863957 C507.04,144.783957 505.333333,146.623957 501.92,148.383957 C498.506667,150.143957 495.413333,151.023957 492.64,151.023957 L492.64,151.023957 Z M543.32,98.3839568 C544.28,98.3839568 546.893333,97.5572902 551.16,95.9039568 C555.426667,94.2506235 557.56,93.2639568 557.56,92.9439568 L557.56,92.9439568 L557.56,81.2639568 C557.56,79.3439568 556.893333,77.4772902 555.56,75.6639568 C554.226667,73.8506235 553.213333,72.9439568 552.52,72.9439568 C551.826667,72.9439568 549.266667,73.7706235 544.84,75.4239568 C540.413333,77.0772902 538.2,78.0639568 538.2,78.3839568 L538.2,78.3839568 L538.2,88.1439568 C538.2,91.2372902 538.813333,93.7172902 540.04,95.5839568 C541.266667,97.4506235 542.36,98.3839568 543.32,98.3839568 Z M550.2,199.343957 L566.36,190.223957 L566.36,186.703957 C561.986667,185.850623 559.8,182.170623 559.8,175.663957 L559.8,175.663957 L559.8,119.023957 C559.8,117.103957 558.786667,115.050623 556.76,112.863957 C554.733333,110.67729 552.546667,109.103957 550.2,108.143957 L550.2,108.143957 L534.04,117.263957 L534.04,120.783957 C538.413333,121.63729 540.6,125.31729 540.6,131.823957 L540.6,131.823957 L540.6,188.463957 C540.6,190.383957 541.613333,192.43729 543.64,194.623957 C545.666667,196.810623 547.853333,198.383957 550.2,199.343957 L550.2,199.343957 Z M585.2,199.343957 L601.36,190.223957 L601.36,186.703957 C596.986667,185.850623 594.8,182.170623 594.8,175.663957 L594.8,175.663957 L594.8,124.623957 C598.64,124.623957 601.52,125.31729 603.44,126.703957 C605.146667,127.983957 606,133.103957 606,142.063957 L606,142.063957 L608.72,144.303957 L625.2,135.023957 L625.2,127.183957 C625.2,123.450623 623.706667,119.343957 620.72,114.863957 C617.733333,110.383957 614.533333,108.143957 611.12,108.143957 C609.84,108.143957 606.933333,109.71729 602.4,112.863957 C597.866667,116.010623 595.333333,117.690623 594.8,117.903957 C594.8,115.770623 593.92,113.850623 592.16,112.143957 C590.4,110.43729 589.013333,109.39729 588,109.023957 C586.986667,108.650623 586.106667,108.35729 585.36,108.143957 L585.36,108.143957 L567.76,117.743957 L567.76,121.263957 C569.68,121.263957 571.466667,122.43729 573.12,124.783957 C574.773333,127.130623 575.6,130.650623 575.6,135.343957 L575.6,135.343957 L575.6,188.463957 C575.6,190.383957 576.613333,192.43729 578.64,194.623957 C580.666667,196.810623 582.853333,198.383957 585.2,199.343957 L585.2,199.343957 Z M666.6,199.343957 L684.04,189.583957 L684.04,186.063957 C681.373333,185.423957 679.4,184.330623 678.12,182.783957 C676.84,181.23729 676.2,178.490623 676.2,174.543957 L676.2,174.543957 L676.2,129.263957 C676.2,124.35729 674.6,119.610623 671.4,115.023957 C668.2,110.43729 664.84,108.143957 661.32,108.143957 C659.293333,108.143957 650.013333,111.07729 633.48,116.943957 L633.48,116.943957 L633.48,121.743957 C642.653333,121.743957 648.84,122.943957 652.04,125.343957 C655.24,127.743957 656.84,131.983957 656.84,138.063957 L656.84,138.063957 L648.36,140.783957 C642.813333,142.490623 637.266667,144.67729 631.72,147.343957 C626.173333,150.010623 623.4,152.19729 623.4,153.903957 L623.4,153.903957 L623.4,180.143957 C623.4,184.623957 625,188.623957 628.2,192.143957 C629.373333,193.530623 630.733333,194.83729 632.28,196.063957 C633.826667,197.290623 634.92,198.090623 635.56,198.463957 C636.2,198.83729 636.68,199.130623 637,199.343957 L637,199.343957 L657,188.623957 C657,190.43729 658.013333,192.43729 660.04,194.623957 C662.066667,196.810623 664.253333,198.383957 666.6,199.343957 L666.6,199.343957 Z M650.6,183.823957 C648.573333,183.823957 646.733333,182.943957 645.08,181.183957 C643.426667,179.423957 642.6,177.15729 642.6,174.383957 L642.6,174.383957 L642.6,163.983957 C642.6,157.690623 643.986667,153.263957 646.76,150.703957 C648.253333,149.31729 649.666667,148.303957 651,147.663957 C652.333333,147.023957 654.333333,146.223957 657,145.263957 L657,145.263957 L657,181.423957 C654.76,183.023957 652.626667,183.823957 650.6,183.823957 Z M701.6,199.343957 L717.76,190.223957 L717.76,186.703957 C713.386667,185.850623 711.2,182.170623 711.2,175.663957 L711.2,175.663957 L711.2,118.383957 L717.76,118.383957 L719.36,110.543957 L711.2,110.543957 L711.2,91.5039568 L706.72,91.5039568 C705.866667,96.4106235 703.173333,101.023957 698.64,105.343957 C694.106667,109.663957 690.24,111.823957 687.04,111.823957 L687.04,111.823957 L685.44,118.543957 L692,118.543957 L692,188.463957 C692,190.383957 693.013333,192.43729 695.04,194.623957 C697.066667,196.810623 699.253333,198.383957 701.6,199.343957 L701.6,199.343957 Z M741.72,199.343957 C742.893333,199.343957 752.226667,196.410623 769.72,190.543957 L769.72,190.543957 L769.72,185.903957 C764.813333,185.903957 760.6,185.47729 757.08,184.623957 C749.933333,182.703957 746.36,177.63729 746.36,169.423957 C746.786667,169.423957 749.64,168.543957 754.92,166.783957 C760.2,165.023957 765.666667,162.75729 771.32,159.983957 C776.973333,157.210623 779.8,154.863957 779.8,152.943957 L779.8,152.943957 L779.8,126.063957 C779.8,123.290623 778.733333,120.43729 776.6,117.503957 C774.466667,114.570623 772.333333,112.27729 770.2,110.623957 C768.066667,108.970623 766.733333,108.143957 766.2,108.143957 C764.386667,108.143957 757.4,110.410623 745.24,114.943957 C733.08,119.47729 727,122.11729 727,122.863957 L727,122.863957 L727,176.623957 C727,182.703957 728.653333,188.010623 731.96,192.543957 C735.266667,197.07729 738.52,199.343957 741.72,199.343957 Z M746.2,162.223957 L746.2,125.263957 C748.76,123.663957 751.106667,122.863957 753.24,122.863957 C755.373333,122.863957 757.133333,123.903957 758.52,125.983957 C759.906667,128.063957 760.6,130.59729 760.6,133.583957 L760.6,133.583957 L760.6,144.943957 C760.6,153.79729 755.8,159.55729 746.2,162.223957 L746.2,162.223957 Z" id="JackthePirate" fill="#BB991D" fill-rule="nonzero"></path>
                <path d="M18.12,221.143957 C19.6133333,221.143957 21.0533333,219.19729 22.44,215.303957 C23.8266667,211.410623 25,205.863957 25.96,198.663957 C26.92,191.463957 27.4,183.703957 27.4,175.383957 L27.4,175.383957 L27.4,91.5439568 C27.4,87.2772902 27.9866667,83.6772902 29.16,80.7439568 C30.3333333,77.8106235 31.2933333,76.0506235 32.04,75.4639568 C32.7866667,74.8772902 33.3733333,74.4772902 33.8,74.2639568 L33.8,74.2639568 L31.24,69.1439568 C20.36,75.5439568 7.98666667,82.3706235 -5.88,89.6239568 L-5.88,89.6239568 L-5.88,94.1039568 C3.50666667,94.1039568 8.2,96.2372902 8.2,100.503957 L8.2,100.503957 L8.2,174.263957 C8.2,186.103957 7.48,194.47729 6.04,199.383957 C4.6,204.290623 2.01333333,206.743957 -1.72,206.743957 L-1.72,206.743957 L-7.16,206.743957 L-7.16,211.543957 L-2.84,213.943957 C0.04,215.543957 3.58666667,217.143957 7.8,218.743957 C12.0133333,220.343957 15.4533333,221.143957 18.12,221.143957 Z M83.2,192.343957 L100.64,182.583957 L100.64,179.063957 C97.9733333,178.423957 96,177.330623 94.72,175.783957 C93.44,174.23729 92.8,171.490623 92.8,167.543957 L92.8,167.543957 L92.8,122.263957 C92.8,117.35729 91.2,112.610623 88,108.023957 C84.8,103.43729 81.44,101.143957 77.92,101.143957 C75.8933333,101.143957 66.6133333,104.07729 50.08,109.943957 L50.08,109.943957 L50.08,114.743957 C59.2533333,114.743957 65.44,115.943957 68.64,118.343957 C71.84,120.743957 73.44,124.983957 73.44,131.063957 L73.44,131.063957 L64.96,133.783957 C59.4133333,135.490623 53.8666667,137.67729 48.32,140.343957 C42.7733333,143.010623 40,145.19729 40,146.903957 L40,146.903957 L40,173.143957 C40,177.623957 41.6,181.623957 44.8,185.143957 C45.9733333,186.530623 47.3333333,187.83729 48.88,189.063957 C50.4266667,190.290623 51.52,191.090623 52.16,191.463957 C52.8,191.83729 53.28,192.130623 53.6,192.343957 L53.6,192.343957 L73.6,181.623957 C73.6,183.43729 74.6133333,185.43729 76.64,187.623957 C78.6666667,189.810623 80.8533333,191.383957 83.2,192.343957 L83.2,192.343957 Z M67.2,176.823957 C65.1733333,176.823957 63.3333333,175.943957 61.68,174.183957 C60.0266667,172.423957 59.2,170.15729 59.2,167.383957 L59.2,167.383957 L59.2,156.983957 C59.2,150.690623 60.5866667,146.263957 63.36,143.703957 C64.8533333,142.31729 66.2666667,141.303957 67.6,140.663957 C68.9333333,140.023957 70.9333333,139.223957 73.6,138.263957 L73.6,138.263957 L73.6,174.423957 C71.36,176.023957 69.2266667,176.823957 67.2,176.823957 Z M123.32,192.343957 C124.493333,192.343957 133.826667,189.410623 151.32,183.543957 L151.32,183.543957 L151.32,178.903957 C146.306667,178.903957 141.986667,178.47729 138.36,177.623957 C131.32,175.703957 127.8,170.63729 127.8,162.423957 L127.8,162.423957 L127.8,118.263957 C128.653333,117.19729 129.613333,116.663957 130.68,116.663957 C132.173333,116.663957 134.146667,121.010623 136.6,129.703957 C139.053333,138.39729 141.08,142.743957 142.68,142.743957 C143.106667,142.743957 146.12,141.383957 151.72,138.663957 C157.32,135.943957 161.293333,134.050623 163.64,132.983957 L163.64,132.983957 L163.64,129.783957 C160.226667,129.783957 157.906667,128.743957 156.68,126.663957 C155.453333,124.583957 154.28,121.35729 153.16,116.983957 C152.04,112.610623 151.053333,108.87729 150.2,105.783957 C149.346667,102.690623 148.6,101.143957 147.96,101.143957 C146.146667,101.143957 139.133333,103.410623 126.92,107.943957 C114.706667,112.47729 108.6,115.11729 108.6,115.863957 L108.6,115.863957 L108.6,169.623957 C108.6,175.703957 110.253333,181.010623 113.56,185.543957 C116.866667,190.07729 120.12,192.343957 123.32,192.343957 Z M216.24,192.343957 C218.8,192.343957 225.04,189.143957 234.96,182.743957 L234.96,182.743957 L234.96,178.103957 C232.506667,177.890623 230.266667,177.303957 228.24,176.343957 C221.84,173.67729 215.28,163.43729 208.56,145.623957 C219.653333,141.35729 225.2,138.63729 225.2,137.463957 L225.2,137.463957 L225.2,120.023957 C225.2,115.223957 223.386667,110.87729 219.76,106.983957 C216.133333,103.090623 212.826667,101.143957 209.84,101.143957 C208.026667,101.143957 202.16,104.343957 192.24,110.743957 L192.24,110.743957 L192.24,96.0239568 C192.24,90.9039568 193.84,86.3172902 197.04,82.2639568 C198.32,80.6639568 199.92,79.0906235 201.84,77.5439568 C203.76,75.9972902 205.253333,74.9572902 206.32,74.4239568 L206.32,74.4239568 L203.76,69.3039568 C192.88,75.7039568 180.506667,82.5306235 166.64,89.7839568 L166.64,89.7839568 L166.64,94.2639568 C168.986667,94.2639568 170.64,94.8772902 171.6,96.1039568 C172.56,97.3306235 173.04,99.3839568 173.04,102.263957 L173.04,102.263957 L173.04,181.463957 C173.04,183.383957 174.053333,185.43729 176.08,187.623957 C178.106667,189.810623 180.293333,191.383957 182.64,192.343957 L182.64,192.343957 L198.8,183.223957 L198.8,179.703957 C194.426667,178.850623 192.24,175.170623 192.24,168.663957 L192.24,168.663957 L192.24,150.743957 C194.266667,157.67729 197.92,166.343957 203.2,176.743957 C208.48,187.143957 212.826667,192.343957 216.24,192.343957 Z M192.24,142.903957 L192.24,117.463957 L197.36,116.663957 C203.546667,116.663957 206.64,121.19729 206.64,130.263957 L206.64,130.263957 L206.64,137.463957 L203.76,138.903957 C198.213333,141.570623 194.373333,142.903957 192.24,142.903957 L192.24,142.903957 Z M281.44,192.343957 L297.6,183.223957 L297.6,179.703957 C293.226667,178.850623 291.04,175.170623 291.04,168.663957 L291.04,168.663957 L291.04,111.383957 L297.6,111.383957 L299.2,103.543957 L291.04,103.543957 L291.04,84.5039568 L286.56,84.5039568 C285.706667,89.4106235 283.013333,94.0239568 278.48,98.3439568 C273.946667,102.663957 270.08,104.823957 266.88,104.823957 L266.88,104.823957 L265.28,111.543957 L271.84,111.543957 L271.84,181.463957 C271.84,183.383957 272.853333,185.43729 274.88,187.623957 C276.906667,189.810623 279.093333,191.383957 281.44,192.343957 L281.44,192.343957 Z M350.04,192.343957 L367.48,182.583957 L367.48,179.063957 C362.253333,177.99729 359.64,174.530623 359.64,168.663957 L359.64,168.663957 L359.64,121.623957 C359.64,116.503957 358.093333,111.810623 355,107.543957 C351.906667,103.27729 348.653333,101.143957 345.24,101.143957 C343.426667,101.143957 337.026667,103.970623 326.04,109.623957 L326.04,109.623957 L326.04,96.0239568 C326.04,90.9039568 327.64,86.3172902 330.84,82.2639568 C332.12,80.6639568 333.72,79.0906235 335.64,77.5439568 C337.56,75.9972902 339.053333,74.9572902 340.12,74.4239568 L340.12,74.4239568 L337.56,69.3039568 C326.68,75.7039568 314.306667,82.5306235 300.44,89.7839568 L300.44,89.7839568 L300.44,94.2639568 C302.786667,94.2639568 304.44,94.8772902 305.4,96.1039568 C306.36,97.3306235 306.84,99.3839568 306.84,102.263957 L306.84,102.263957 L306.84,181.463957 C306.84,183.383957 307.853333,185.43729 309.88,187.623957 C311.906667,189.810623 314.093333,191.383957 316.44,192.343957 L316.44,192.343957 L332.6,183.223957 L332.6,179.703957 C328.226667,178.850623 326.04,175.170623 326.04,168.663957 L326.04,168.663957 L326.04,116.343957 C329.986667,116.343957 332.866667,116.663957 334.68,117.303957 C338.52,118.690623 340.44,124.610623 340.44,135.063957 L340.44,135.063957 L340.44,181.463957 C340.44,183.383957 341.453333,185.43729 343.48,187.623957 C345.506667,189.810623 347.693333,191.383957 350.04,192.343957 L350.04,192.343957 Z M390.16,192.343957 C391.333333,192.343957 400.666667,189.410623 418.16,183.543957 L418.16,183.543957 L418.16,178.903957 C413.253333,178.903957 409.04,178.47729 405.52,177.623957 C398.373333,175.703957 394.8,170.63729 394.8,162.423957 C395.226667,162.423957 398.08,161.543957 403.36,159.783957 C408.64,158.023957 414.106667,155.75729 419.76,152.983957 C425.413333,150.210623 428.24,147.863957 428.24,145.943957 L428.24,145.943957 L428.24,119.063957 C428.24,116.290623 427.173333,113.43729 425.04,110.503957 C422.906667,107.570623 420.773333,105.27729 418.64,103.623957 C416.506667,101.970623 415.173333,101.143957 414.64,101.143957 C412.826667,101.143957 405.84,103.410623 393.68,107.943957 C381.52,112.47729 375.44,115.11729 375.44,115.863957 L375.44,115.863957 L375.44,169.623957 C375.44,175.703957 377.093333,181.010623 380.4,185.543957 C383.706667,190.07729 386.96,192.343957 390.16,192.343957 Z M394.64,155.223957 L394.64,118.263957 C397.2,116.663957 399.546667,115.863957 401.68,115.863957 C403.813333,115.863957 405.573333,116.903957 406.96,118.983957 C408.346667,121.063957 409.04,123.59729 409.04,126.583957 L409.04,126.583957 L409.04,137.943957 C409.04,146.79729 404.24,152.55729 394.64,155.223957 L394.64,155.223957 Z M466.4,197.463957 L499.2,183.703957 L499.2,178.743957 C496.533333,178.743957 494.773333,177.890623 493.92,176.183957 C493.066667,174.47729 492.64,171.650623 492.64,167.703957 L492.64,167.703957 L492.64,151.543957 C498.186667,149.83729 505.2,147.27729 513.68,143.863957 C522.16,140.450623 526.4,138.370623 526.4,137.623957 L526.4,137.623957 L526.4,87.8639568 C526.4,84.3439568 524.56,80.3972902 520.88,76.0239568 C517.2,71.6506235 514.506667,69.4639568 512.8,69.4639568 C512.141714,69.4639568 510.737567,69.9955813 508.587559,71.0588303 L508.097502,71.3038589 C504.664882,73.0380194 499.512381,75.9980521 492.64,80.1839568 C492.64,78.3706235 491.573333,76.3439568 489.44,74.1039568 C487.306667,71.8639568 485.173333,70.3172902 483.04,69.4639568 L483.04,69.4639568 L466.88,78.5839568 L466.88,82.1039568 C471.253333,82.9572902 473.44,86.6372902 473.44,93.1439568 L473.44,93.1439568 L473.44,176.023957 C473.44,181.463957 472.48,185.51729 470.56,188.183957 C468.426667,190.95729 466.186667,192.343957 463.84,192.343957 L463.84,192.343957 L466.4,197.463957 Z M492.64,144.023957 L492.64,87.2239568 C494.88,85.6239568 496.96,84.8239568 498.88,84.8239568 C504.32,84.8239568 507.04,88.7706235 507.04,96.6639568 L507.04,96.6639568 L507.04,135.863957 C507.04,137.783957 505.333333,139.623957 501.92,141.383957 C498.506667,143.143957 495.413333,144.023957 492.64,144.023957 L492.64,144.023957 Z M543.32,91.3839568 C544.28,91.3839568 546.893333,90.5572902 551.16,88.9039568 C555.426667,87.2506235 557.56,86.2639568 557.56,85.9439568 L557.56,85.9439568 L557.56,74.2639568 C557.56,72.3439568 556.893333,70.4772902 555.56,68.6639568 C554.226667,66.8506235 553.213333,65.9439568 552.52,65.9439568 C551.826667,65.9439568 549.266667,66.7706235 544.84,68.4239568 C540.413333,70.0772902 538.2,71.0639568 538.2,71.3839568 L538.2,71.3839568 L538.2,81.1439568 C538.2,84.2372902 538.813333,86.7172902 540.04,88.5839568 C541.266667,90.4506235 542.36,91.3839568 543.32,91.3839568 Z M550.2,192.343957 L566.36,183.223957 L566.36,179.703957 C561.986667,178.850623 559.8,175.170623 559.8,168.663957 L559.8,168.663957 L559.8,112.023957 C559.8,110.103957 558.786667,108.050623 556.76,105.863957 C554.733333,103.67729 552.546667,102.103957 550.2,101.143957 L550.2,101.143957 L534.04,110.263957 L534.04,113.783957 C538.413333,114.63729 540.6,118.31729 540.6,124.823957 L540.6,124.823957 L540.6,181.463957 C540.6,183.383957 541.613333,185.43729 543.64,187.623957 C545.666667,189.810623 547.853333,191.383957 550.2,192.343957 L550.2,192.343957 Z M585.2,192.343957 L601.36,183.223957 L601.36,179.703957 C596.986667,178.850623 594.8,175.170623 594.8,168.663957 L594.8,168.663957 L594.8,117.623957 C598.64,117.623957 601.52,118.31729 603.44,119.703957 C605.146667,120.983957 606,126.103957 606,135.063957 L606,135.063957 L608.72,137.303957 L625.2,128.023957 L625.2,120.183957 C625.2,116.450623 623.706667,112.343957 620.72,107.863957 C617.733333,103.383957 614.533333,101.143957 611.12,101.143957 C609.84,101.143957 606.933333,102.71729 602.4,105.863957 C597.866667,109.010623 595.333333,110.690623 594.8,110.903957 C594.8,108.770623 593.92,106.850623 592.16,105.143957 C590.4,103.43729 589.013333,102.39729 588,102.023957 C586.986667,101.650623 586.106667,101.35729 585.36,101.143957 L585.36,101.143957 L567.76,110.743957 L567.76,114.263957 C569.68,114.263957 571.466667,115.43729 573.12,117.783957 C574.773333,120.130623 575.6,123.650623 575.6,128.343957 L575.6,128.343957 L575.6,181.463957 C575.6,183.383957 576.613333,185.43729 578.64,187.623957 C580.666667,189.810623 582.853333,191.383957 585.2,192.343957 L585.2,192.343957 Z M666.6,192.343957 L684.04,182.583957 L684.04,179.063957 C681.373333,178.423957 679.4,177.330623 678.12,175.783957 C676.84,174.23729 676.2,171.490623 676.2,167.543957 L676.2,167.543957 L676.2,122.263957 C676.2,117.35729 674.6,112.610623 671.4,108.023957 C668.2,103.43729 664.84,101.143957 661.32,101.143957 C659.293333,101.143957 650.013333,104.07729 633.48,109.943957 L633.48,109.943957 L633.48,114.743957 C642.653333,114.743957 648.84,115.943957 652.04,118.343957 C655.24,120.743957 656.84,124.983957 656.84,131.063957 L656.84,131.063957 L648.36,133.783957 C642.813333,135.490623 637.266667,137.67729 631.72,140.343957 C626.173333,143.010623 623.4,145.19729 623.4,146.903957 L623.4,146.903957 L623.4,173.143957 C623.4,177.623957 625,181.623957 628.2,185.143957 C629.373333,186.530623 630.733333,187.83729 632.28,189.063957 C633.826667,190.290623 634.92,191.090623 635.56,191.463957 C636.2,191.83729 636.68,192.130623 637,192.343957 L637,192.343957 L657,181.623957 C657,183.43729 658.013333,185.43729 660.04,187.623957 C662.066667,189.810623 664.253333,191.383957 666.6,192.343957 L666.6,192.343957 Z M650.6,176.823957 C648.573333,176.823957 646.733333,175.943957 645.08,174.183957 C643.426667,172.423957 642.6,170.15729 642.6,167.383957 L642.6,167.383957 L642.6,156.983957 C642.6,150.690623 643.986667,146.263957 646.76,143.703957 C648.253333,142.31729 649.666667,141.303957 651,140.663957 C652.333333,140.023957 654.333333,139.223957 657,138.263957 L657,138.263957 L657,174.423957 C654.76,176.023957 652.626667,176.823957 650.6,176.823957 Z M701.6,192.343957 L717.76,183.223957 L717.76,179.703957 C713.386667,178.850623 711.2,175.170623 711.2,168.663957 L711.2,168.663957 L711.2,111.383957 L717.76,111.383957 L719.36,103.543957 L711.2,103.543957 L711.2,84.5039568 L706.72,84.5039568 C705.866667,89.4106235 703.173333,94.0239568 698.64,98.3439568 C694.106667,102.663957 690.24,104.823957 687.04,104.823957 L687.04,104.823957 L685.44,111.543957 L692,111.543957 L692,181.463957 C692,183.383957 693.013333,185.43729 695.04,187.623957 C697.066667,189.810623 699.253333,191.383957 701.6,192.343957 L701.6,192.343957 Z M741.72,192.343957 C742.893333,192.343957 752.226667,189.410623 769.72,183.543957 L769.72,183.543957 L769.72,178.903957 C764.813333,178.903957 760.6,178.47729 757.08,177.623957 C749.933333,175.703957 746.36,170.63729 746.36,162.423957 C746.786667,162.423957 749.64,161.543957 754.92,159.783957 C760.2,158.023957 765.666667,155.75729 771.32,152.983957 C776.973333,150.210623 779.8,147.863957 779.8,145.943957 L779.8,145.943957 L779.8,119.063957 C779.8,116.290623 778.733333,113.43729 776.6,110.503957 C774.466667,107.570623 772.333333,105.27729 770.2,103.623957 C768.066667,101.970623 766.733333,101.143957 766.2,101.143957 C764.386667,101.143957 757.4,103.410623 745.24,107.943957 C733.08,112.47729 727,115.11729 727,115.863957 L727,115.863957 L727,169.623957 C727,175.703957 728.653333,181.010623 731.96,185.543957 C735.266667,190.07729 738.52,192.343957 741.72,192.343957 Z M746.2,155.223957 L746.2,118.263957 C748.76,116.663957 751.106667,115.863957 753.24,115.863957 C755.373333,115.863957 757.133333,116.903957 758.52,118.983957 C759.906667,121.063957 760.6,123.59729 760.6,126.583957 L760.6,126.583957 L760.6,137.943957 C760.6,146.79729 755.8,152.55729 746.2,155.223957 L746.2,155.223957 Z" id="JackthePirate" fill="#F8D34C" fill-rule="nonzero"></path>
                <g id="Group-13" transform="translate(479.000000, 49.641642) rotate(-16.000000) translate(-479.000000, -49.641642) translate(422.000000, 14.343957)">
                    <path d="M61.9742605,0 L61.2966534,5.4317188 C61.0241298,7.62197598 59.2234646,9.2016701 56.9999119,9.2016701 C54.7765354,9.2016701 52.9758702,7.62197598 52.7026415,5.4317188 L52.0257395,0 L46.702892,1.42464715 C34.9977749,4.55533594 28.5932944,13.0563197 22.9586137,20.6242218 C17.3239329,28.1928238 12.3125662,34.9788411 3.07109049,38.5060722 L0,39.6776743 L0,46.2654205 C0,59.6621085 11.0132316,70.5953698 24.5079085,70.5953698 L89.4920915,70.5953698 C102.986768,70.5953698 114,59.6621085 114,46.2654205 L114,39.6776743 L110.92891,38.5060722 C101.687434,34.9788411 96.6760671,28.1928238 91.0413863,20.6242218 C85.4074107,13.0563197 79.0022251,4.55463595 67.2969317,1.42394716 L61.9742605,0 Z M45.1763369,12.1349627 C47.6510837,16.0942603 52.0662831,18.7123841 56.9999119,18.7123841 L57.000617,18.7123841 C61.934422,18.7123841 66.3489163,16.0942603 68.8236631,12.1349627 C74.7770519,14.9895069 78.7103111,20.0623078 83.3368661,26.2767863 C88.4377813,33.1289523 94.3148423,41.1891197 104.419721,46.0452748 L104.419721,46.2654205 C104.419721,54.5572833 97.8451333,61.0846557 89.4920915,61.0846557 L24.5079085,61.0846557 C16.1553955,61.0846557 9.58027929,54.5572833 9.58027929,46.2654205 L9.58027929,46.0452748 C19.6851577,41.1891197 25.5622187,33.1296523 30.6631339,26.2774862 C35.2896889,20.0623078 39.2229481,14.9895069 45.1763369,12.1349627 Z" id="Fill-46" fill="#232323"></path>
                    <path d="M66.0506563,6.01550739 C65.4853373,10.5510687 61.6039034,13.9566771 56.9999119,13.9573771 C52.3968017,13.9573771 48.5153678,10.5517687 47.9493437,6.01620738 C27.8462343,11.3931522 26.0697189,34.8229192 4.7904922,42.9445104 L4.7904922,46.2654205 C4.7904922,57.1097834 13.5842254,65.8396628 24.5079085,65.8396628 L89.4920915,65.8396628 C100.415598,65.8396628 109.210213,57.1097834 109.210213,46.2654205 L109.210213,42.9445104 C87.9302811,34.8229192 86.1544709,11.3924523 66.0506563,6.01550739 Z" id="Fill-49" fill="#655656"></path>
                    <path d="M66.0506563,6.01550739 C65.4853373,10.5510687 61.6039034,13.9573771 56.9999119,13.9573771 C52.3968017,13.9573771 48.5146627,10.5517687 47.9493437,6.01620738 C28.2455007,11.2865793 26.1446365,33.8959623 6.03394716,42.4394703 L16.1705553,42.4394703 C29.9236537,33.3819973 38.9971378,22.454161 56.999383,22.454161 C75.0021571,22.454161 84.0756412,33.3819973 97.8287396,42.4394703 L107.965877,42.4394703 C87.8551872,33.8959623 85.7544993,11.2858793 66.0506563,6.01550739 Z" id="Fill-50" fill="#907C75"></path>
                    <path d="M4.7904922,45.7698301 L4.7904922,46.2654205 C4.7904922,57.1097834 13.5842254,65.8396628 24.5079085,65.8396628 L89.4920915,65.8396628 C100.415598,65.8396628 109.210213,57.1097834 109.210213,46.2654205 L109.210213,45.7698301 C106.52887,53.6651508 99.0281254,59.3210402 90.1474878,59.3210402 L23.8523359,59.3210402 C14.9718746,59.3210402 7.47113007,53.6651508 4.7904922,45.7698301 Z" id="Fill-51" fill="#493D3D"></path>
                    <path d="M66.0506563,6.01550739 C65.4853373,10.5510687 61.6039034,13.9573771 56.9999119,13.9573771 C52.3968017,13.9573771 48.5146627,10.5517687 47.9493437,6.01620738 C27.8462343,11.3931522 26.0697189,34.8229192 4.7904922,42.9445104 L4.7904922,46.2654205 C4.7904922,46.9694317 4.82839166,47.6646931 4.90066506,48.3489297 L4.91229931,48.3489297 C17.0031096,43.7423198 22.232883,37.9994571 30.9813131,26.5105817 C35.7379602,20.2640788 39.5603415,15.1242543 45.5551552,12.3379588 C48.0822562,16.1749338 52.3885167,18.4873385 57.0055527,18.4873385 C61.6231176,18.4873385 65.9295543,16.1749338 68.4566553,12.3379588 C74.4512928,15.1242543 78.273674,20.2640788 83.029616,26.5105817 C91.7787513,37.9994571 97.0085247,43.7423198 109.099335,48.3489297 L109.111145,48.3373799 C109.183419,47.6557683 109.220613,46.9647068 109.220613,46.2640205 L109.220613,42.9425854 C87.9406814,34.8215192 86.1641661,11.3912273 66.0610566,6.01410742 L66.0506563,6.01550739 Z" id="Fill-52" fill="#F4BF5B"></path>
                    <path d="M65.0323065,4.51158679 L64.8621997,5.86991024 C64.3698592,9.81888303 61.0082649,12.7679254 56.9999119,12.7679254 C52.9917351,12.7679254 49.6301408,9.81888303 49.1370952,5.86991024 L48.9683986,4.51228678 L47.6373341,4.86840482 C37.1730278,7.6669501 31.4687179,15.1939029 25.847963,22.7448303 C20.2263268,30.2948827 14.6501699,37.9072339 4.3600248,41.8343321 L3.59234032,42.1276264 L3.59234032,46.2654205 C3.59234032,57.747471 12.9418736,67.0284145 24.5079085,67.0284145 L89.4920915,67.0284145 C101.058126,67.0284145 110.40766,57.747471 110.40766,46.2654205 L110.40766,42.1276264 L109.639975,41.8343321 C99.349125,37.9072339 93.7736732,30.2948827 88.1527421,22.7441303 C82.5311059,15.193203 76.8276773,7.6669501 66.3626659,4.86770483 L65.0323065,4.51158679 Z M66.9375038,7.52695284 C75.814087,10.3398478 80.8531291,16.9398438 86.2260391,24.1570527 C91.7038337,31.5158338 97.5195505,39.4582285 108.012766,43.7354949 L108.012766,46.2654205 C108.012766,56.4712209 99.7732465,64.650911 89.4920915,64.650911 L24.5079085,64.650911 C14.2267535,64.650911 5.98793897,56.4712209 5.98793897,46.2654205 L5.98793897,43.7347949 C16.4804495,39.4582285 22.2961663,31.5158338 27.7739609,24.1577527 C33.1468709,16.9405438 38.185913,10.3405478 47.06232,7.52765282 C48.2481325,11.9482414 52.279754,15.1461289 56.9999119,15.1461289 C61.720246,15.1461289 65.7518675,11.9475414 66.9375038,7.52695284 Z" id="Fill-53" fill="#232323"></path>
                    <path d="M45.7651006,11.5784736 L45.2947947,11.7972193 C39.1326945,14.6620883 35.2517894,19.9058608 30.4979628,26.1497387 C21.7604618,37.6235644 16.680876,43.2241549 4.69195359,47.7917406 C4.38276448,47.9093383 4.22852248,48.2532066 4.34698034,48.5601506 C4.46543819,48.8663946 4.81182166,49.0195166 5.12101078,48.9019189 C17.3130038,44.2569847 22.6927886,38.3700998 31.4530293,26.8666997 C36.0912185,20.7754188 39.7984911,15.855565 45.3788787,13.1014688 C48.0498213,16.8316959 52.3664821,19.079352 56.999383,19.079352 C61.6328128,19.079352 65.9494736,16.8316959 68.6204162,13.1014688 C74.2000987,15.854865 77.9080764,20.7754188 82.5462656,26.8666997 C91.3065063,38.3700998 96.6862911,44.2569847 108.878989,48.9019189 C109.187473,49.0195166 109.533857,48.8663946 109.652315,48.5601506 C109.770772,48.2532066 109.61653,47.9093383 109.308046,47.7917406 C97.3184189,43.2241549 92.2388331,37.6235644 83.5013321,26.1497387 C78.7468003,19.9058608 74.8666004,14.6613884 68.7045002,11.7972193 L68.2341943,11.5784736 L67.9498601,12.0105402 C65.532932,15.6798684 61.4158163,17.8906002 56.999383,17.8906002 C52.5834786,17.8906002 48.467068,15.6798684 46.0501399,12.0098402 L45.7651006,11.5784736 Z" id="Fill-54" fill="#232323"></path>
                    <path d="M56.999383,29.7228189 C49.2335185,29.7233439 42.9378007,34.8010446 42.9378007,41.0653971 C42.9378007,47.3297496 49.2335185,52.4079754 56.999383,52.4079754 C60.7293954,52.4079754 64.3065759,51.2130987 66.9438497,49.0858403 C69.5811236,46.9585819 71.0621993,44.0737633 71.0621993,41.0653971 C71.0621993,38.0570309 69.5804185,35.1722123 66.9431446,33.0449539 C64.3058708,30.9176955 60.7293954,29.7228189 56.999383,29.7228189 Z M51.156696,38.7391676 C53.4511119,38.7391676 54.8488088,40.2663627 54.8488088,42.1495009 C54.8488088,44.0335141 53.5544099,45.7404307 51.156696,45.5605342 C48.8691548,45.3897376 47.0025622,43.9568656 47.0025622,42.1495009 C47.0025622,40.4446843 48.8629852,38.7391676 51.156696,38.7391676 Z M62.8425989,38.7391676 C65.1363097,38.7391676 66.9974378,40.4460842 66.9974378,42.1502009 C66.9974378,43.9568656 65.13014,45.3897376 62.8425989,45.5605342 C60.444885,45.7404307 59.1504861,44.0342141 59.1504861,42.1502009 C59.1504861,40.2663627 60.548183,38.7391676 62.8425989,38.7391676 Z" id="Fill-55" fill="#FFFFFF"></path>
                    <path d="M56.9999119,49.5028572 C58.4811639,49.5028572 59.6729698,50.686184 59.6729698,52.1565053 L59.6729698,53.96177 C59.6729698,55.4315662 58.4811639,56.6154181 56.9999119,56.6154181 C55.5188361,56.6154181 54.3268539,55.4315662 54.3268539,53.96177 L54.3268539,52.1565053 C54.3268539,50.686184 55.5188361,49.5028572 56.9999119,49.5028572 Z" id="Fill-56" fill="#FFFFFF"></path>
                    <path d="M61.9192622,48.2388569 C63.3996329,48.2388569 64.5923202,49.4221837 64.5923202,50.892505 L64.5923202,52.6979447 C64.5923202,54.1682659 63.3996329,55.3515928 61.9192622,55.3515928 C60.4380102,55.3515928 59.2462043,54.1682659 59.2462043,52.6979447 L59.2462043,50.892505 C59.2462043,49.4221837 60.4380102,48.2388569 61.9192622,48.2388569 Z" id="Fill-57" fill="#FFFFFF"></path>
                    <path d="M52.0807378,48.1854829 C53.5619898,48.1854829 54.7537957,49.3688098 54.7537957,50.839306 L54.7537957,52.6445707 C54.7537957,54.114192 53.5619898,55.2982188 52.0807378,55.2982188 C50.6003671,55.2982188 49.4076798,54.114192 49.4076798,52.6445707 L49.4076798,50.839306 C49.4076798,49.3688098 50.6003671,48.1854829 52.0807378,48.1854829 Z" id="Fill-58" fill="#FFFFFF"></path>
                </g>
            </g>
        </g>
    </g>
</svg>