<?xml version="1.0" encoding="UTF-8"?>
<svg width="478px" height="145px" viewBox="0 0 478 145" version="1.1" xmlns="http://www.w3.org/2000/svg" xmlns:xlink="http://www.w3.org/1999/xlink">
    <title>Group 7</title>
    <g id="Page-1" stroke="none" stroke-width="1" fill="none" fill-rule="evenodd">
        <g id="Desktop-HD-Copy-4" transform="translate(-473.000000, -318.000000)" fill-rule="nonzero">
            <g id="Group-7" transform="translate(473.580000, 318.600000)">
                <path d="M18.08,131.4 L50.72,117.16 L50.72,112.68 C48.0533333,112.68 46.32,112.013333 45.52,110.68 C44.72,109.346667 44.32,106.92 44.32,103.4 L44.32,103.4 L44.32,73.32 C56.2666667,69.0533333 62.24,66.0133333 62.24,64.2 L62.24,64.2 L62.24,18.44 C62.24,16.3066667 60.8533333,14.04 58.08,11.64 C55.3066667,9.24 53.4933333,8.04 52.64,8.04 L52.64,8.04 L37.28,17.16 L37.28,20.68 L39.04,21 C40.1066667,21.32 41.1733333,22.36 42.24,24.12 C43.3066667,25.88 43.84,28.3066667 43.84,31.4 L43.84,31.4 L43.84,64.84 L41.28,65.96 L22.88,8.2 L16.64,8.2 L0,17.96 L0,21.32 C1.70666667,21.32 2.98666667,21.3733333 3.84,21.48 C4.69333333,21.5866667 5.65333333,22.04 6.72,22.84 C7.78666667,23.64 8.58666667,24.84 9.12,26.44 L9.12,26.44 L25.12,74.44 L25.12,108.2 C25.12,112.253333 24.7466667,115.72 24,118.6 C22.9333333,122.653333 20.1066667,125.213333 15.52,126.28 L15.52,126.28 L18.08,131.4 Z M91.24,131.4 C93.8533333,131.4 101,129.133333 112.68,124.6 C124.36,120.066667 130.2,117.373333 130.2,116.52 L130.2,116.52 L130.2,58.6 C130.2,55.08 128.36,51.1333333 124.68,46.76 C121,42.3866667 118.253333,40.2 116.44,40.2 C114.626667,40.2 107.64,42.4666667 95.48,47 C83.32,51.5333333 77.24,54.1733333 77.24,54.92 L77.24,54.92 L77.24,108.04 C77.24,114.44 78.92,119.933333 82.28,124.52 C85.64,129.106667 88.6266667,131.4 91.24,131.4 Z M104.6,116.68 C99.16,116.68 96.44,112.733333 96.44,104.84 L96.44,104.84 L96.44,57.48 C98.4666667,55.88 100.546667,55.08 102.68,55.08 C108.12,55.08 110.84,59.0266667 110.84,66.92 L110.84,66.92 L110.84,114.12 C108.706667,115.826667 106.626667,116.68 104.6,116.68 Z M189.2,131.4 C200.08,125 205.893333,121.746667 206.64,121.64 L206.64,121.64 L206.64,118.12 C204.4,118.12 202.533333,116.84 201.04,114.28 C199.546667,111.72 198.8,108.68 198.8,105.16 L198.8,105.16 L198.8,50.92 C198.8,49 197.786667,46.9466667 195.76,44.76 C193.733333,42.5733333 191.546667,41 189.2,40.04 L189.2,40.04 L173.04,49.16 L173.04,52.68 C177.413333,53.5333333 179.6,57.2133333 179.6,63.72 L179.6,63.72 L179.6,113.48 C177.36,115.08 175.226667,115.88 173.2,115.88 C171.173333,115.88 169.333333,115 167.68,113.24 C166.026667,111.48 165.2,109.213333 165.2,106.44 L165.2,106.44 L165.2,50.92 C165.2,49 164.186667,46.9466667 162.16,44.76 C160.133333,42.5733333 157.946667,41 155.6,40.04 L155.6,40.04 L138.16,49.8 L138.16,53.32 C143.386667,54.3866667 146,57.8533333 146,63.72 L146,63.72 L146,112.2 C146,116.68 147.6,120.68 150.8,124.2 C151.973333,125.586667 153.333333,126.893333 154.88,128.12 C156.426667,129.346667 157.52,130.146667 158.16,130.52 C158.8,130.893333 159.28,131.186667 159.6,131.4 L159.6,131.4 L179.6,120.68 C179.6,122.6 180.586667,124.6 182.56,126.68 C184.533333,128.76 186.746667,130.333333 189.2,131.4 Z M292.96,131.4 C295.733333,131.4 302.826667,129.16 314.24,124.68 C325.653333,120.2 331.36,117.48 331.36,116.52 L331.36,116.52 L331.36,63.72 C331.36,55.5066667 328.906667,48.9466667 324,44.04 C321.44,41.48 319.093333,40.2 316.96,40.2 C316.868267,40.2 314.488704,41.3636373 309.821312,43.690912 L308.811008,44.195008 C308.347136,44.4266027 307.863467,44.6682667 307.36,44.92 C301.066667,48.0666667 297.813333,49.7466667 297.6,49.96 C297.066667,47.6133333 295.573333,45.4 293.12,43.32 C290.666667,41.24 288.96,40.2 288,40.2 C287.998539,40.2 287.996007,40.2006005 287.992404,40.2018015 L287.957936,40.2162132 C287.405887,40.4684181 281.606575,43.6630137 270.56,49.8 L270.56,49.8 L270.56,53.32 C275.786667,54.3866667 278.4,57.8533333 278.4,63.72 L278.4,63.72 L278.4,114.44 C276.693333,115.08 275.04,115.4 273.44,115.4 C267.146667,115.4 264,110.333333 264,100.2 L264,100.2 L264,50.76 C264,48.9466667 262.986667,46.9466667 260.96,44.76 C258.933333,42.5733333 256.746667,41 254.4,40.04 L254.4,40.04 L236.96,49.8 L236.96,53.32 C242.186667,54.3866667 244.8,57.8533333 244.8,63.72 L244.8,63.72 L244.8,112.04 C244.8,115.88 246.266667,120.066667 249.2,124.6 C252.133333,129.133333 255.146667,131.4 258.24,131.4 C261.333333,131.4 268.746667,128.093333 280.48,121.48 C283.786667,128.093333 287.946667,131.4 292.96,131.4 Z M305.28,115.72 C302.933333,115.72 301.093333,114.253333 299.76,111.32 C298.426667,108.386667 297.76,105.213333 297.76,101.8 L297.76,101.8 L297.76,55.4 C302.773333,55.5066667 306.4,56.4933333 308.64,58.36 C310.88,60.2266667 312,63.9333333 312,69.48 L312,69.48 L312,114.28 C309.866667,115.24 307.626667,115.72 305.28,115.72 Z M349.88,30.44 C350.84,30.44 353.453333,29.6133333 357.72,27.96 C361.986667,26.3066667 364.12,25.32 364.12,25 L364.12,25 L364.12,13.32 C364.12,11.4 363.453333,9.53333333 362.12,7.72 C360.786667,5.90666667 359.773333,5 359.08,5 C358.386667,5 355.826667,5.82666667 351.4,7.48 C346.973333,9.13333333 344.76,10.12 344.76,10.44 L344.76,10.44 L344.76,20.2 C344.76,23.2933333 345.373333,25.7733333 346.6,27.64 C347.826667,29.5066667 348.92,30.44 349.88,30.44 Z M356.76,131.4 L372.92,122.28 L372.92,118.76 C368.546667,117.906667 366.36,114.226667 366.36,107.72 L366.36,107.72 L366.36,51.08 C366.36,49.16 365.346667,47.1066667 363.32,44.92 C361.293333,42.7333333 359.106667,41.16 356.76,40.2 L356.76,40.2 L340.6,49.32 L340.6,52.84 C344.973333,53.6933333 347.16,57.3733333 347.16,63.88 L347.16,63.88 L347.16,120.52 C347.16,122.44 348.173333,124.493333 350.2,126.68 C352.226667,128.866667 354.413333,130.44 356.76,131.4 L356.76,131.4 Z M425.36,131.4 L442.8,121.64 L442.8,118.12 C437.573333,117.053333 434.96,113.586667 434.96,107.72 L434.96,107.72 L434.96,59.24 C434.96,55.5066667 433.466667,51.4 430.48,46.92 C427.493333,42.44 424.293333,40.2 420.88,40.2 C419.386667,40.2 414.693333,42.44 406.8,46.92 C403.813333,48.6266667 402,49.64 401.36,49.96 C401.36,47.72 400.48,45.7466667 398.72,44.04 C396.96,42.3333333 395.546667,41.2933333 394.48,40.92 C393.413333,40.5466667 392.506667,40.2533333 391.76,40.04 C380.88,46.44 375.066667,49.6933333 374.32,49.8 L374.32,49.8 L374.32,53.32 C376.56,53.32 378.426667,54.6 379.92,57.16 C381.413333,59.72 382.16,62.76 382.16,66.28 L382.16,66.28 L382.16,120.52 C382.16,122.44 383.173333,124.493333 385.2,126.68 C387.226667,128.866667 389.413333,130.44 391.76,131.4 L391.76,131.4 L407.92,122.28 L407.92,118.76 C403.546667,117.906667 401.36,114.226667 401.36,107.72 L401.36,107.72 L401.36,56.68 L406.64,55.72 C410.053333,55.72 412.426667,57.2933333 413.76,60.44 C415.093333,63.5866667 415.76,68.1466667 415.76,74.12 L415.76,74.12 L415.76,120.52 C415.76,122.44 416.773333,124.493333 418.8,126.68 C420.826667,128.866667 423.013333,130.44 425.36,131.4 L425.36,131.4 Z M460.36,110.6 L476.52,101.48 L476.52,97.96 C472.146667,97.1066667 469.96,93.4266667 469.96,86.92 L469.96,86.92 L469.96,19.4 C469.96,17.48 468.946667,15.4266667 466.92,13.24 C464.893333,11.0533333 462.706667,9.48 460.36,8.52 L460.36,8.52 L444.2,17.64 L444.2,21.16 C448.573333,22.0133333 450.76,25.6933333 450.76,32.2 L450.76,32.2 L450.76,99.72 C450.76,101.64 451.773333,103.693333 453.8,105.88 C455.826667,108.066667 458.013333,109.64 460.36,110.6 L460.36,110.6 Z M458.04,144.2 C458.733333,144.2 461.293333,143.373333 465.72,141.72 C470.146667,140.066667 472.36,139.08 472.36,138.76 L472.36,138.76 L472.36,129 C472.36,125.906667 471.746667,123.426667 470.52,121.56 C469.293333,119.693333 468.2,118.76 467.24,118.76 C466.28,118.76 463.666667,119.586667 459.4,121.24 C455.133333,122.893333 453,123.88 453,124.2 L453,124.2 L453,135.88 C453,137.8 453.666667,139.666667 455,141.48 C456.333333,143.293333 457.346667,144.2 458.04,144.2 Z" id="Youwin!" fill="#BE9C1F"></path>
                <path d="M18.08,126.4 L50.72,112.16 L50.72,107.68 C48.0533333,107.68 46.32,107.013333 45.52,105.68 C44.72,104.346667 44.32,101.92 44.32,98.4 L44.32,98.4 L44.32,68.32 C56.2666667,64.0533333 62.24,61.0133333 62.24,59.2 L62.24,59.2 L62.24,13.44 C62.24,11.3066667 60.8533333,9.04 58.08,6.64 C55.3066667,4.24 53.4933333,3.04 52.64,3.04 L52.64,3.04 L37.28,12.16 L37.28,15.68 L39.04,16 C40.1066667,16.32 41.1733333,17.36 42.24,19.12 C43.3066667,20.88 43.84,23.3066667 43.84,26.4 L43.84,26.4 L43.84,59.84 L41.28,60.96 L22.88,3.2 L16.64,3.2 L0,12.96 L0,16.32 C1.70666667,16.32 2.98666667,16.3733333 3.84,16.48 C4.69333333,16.5866667 5.65333333,17.04 6.72,17.84 C7.78666667,18.64 8.58666667,19.84 9.12,21.44 L9.12,21.44 L25.12,69.44 L25.12,103.2 C25.12,107.253333 24.7466667,110.72 24,113.6 C22.9333333,117.653333 20.1066667,120.213333 15.52,121.28 L15.52,121.28 L18.08,126.4 Z M91.24,126.4 C93.8533333,126.4 101,124.133333 112.68,119.6 C124.36,115.066667 130.2,112.373333 130.2,111.52 L130.2,111.52 L130.2,53.6 C130.2,50.08 128.36,46.1333333 124.68,41.76 C121,37.3866667 118.253333,35.2 116.44,35.2 C114.626667,35.2 107.64,37.4666667 95.48,42 C83.32,46.5333333 77.24,49.1733333 77.24,49.92 L77.24,49.92 L77.24,103.04 C77.24,109.44 78.92,114.933333 82.28,119.52 C85.64,124.106667 88.6266667,126.4 91.24,126.4 Z M104.6,111.68 C99.16,111.68 96.44,107.733333 96.44,99.84 L96.44,99.84 L96.44,52.48 C98.4666667,50.88 100.546667,50.08 102.68,50.08 C108.12,50.08 110.84,54.0266667 110.84,61.92 L110.84,61.92 L110.84,109.12 C108.706667,110.826667 106.626667,111.68 104.6,111.68 Z M189.2,126.4 C200.08,120 205.893333,116.746667 206.64,116.64 L206.64,116.64 L206.64,113.12 C204.4,113.12 202.533333,111.84 201.04,109.28 C199.546667,106.72 198.8,103.68 198.8,100.16 L198.8,100.16 L198.8,45.92 C198.8,44 197.786667,41.9466667 195.76,39.76 C193.733333,37.5733333 191.546667,36 189.2,35.04 L189.2,35.04 L173.04,44.16 L173.04,47.68 C177.413333,48.5333333 179.6,52.2133333 179.6,58.72 L179.6,58.72 L179.6,108.48 C177.36,110.08 175.226667,110.88 173.2,110.88 C171.173333,110.88 169.333333,110 167.68,108.24 C166.026667,106.48 165.2,104.213333 165.2,101.44 L165.2,101.44 L165.2,45.92 C165.2,44 164.186667,41.9466667 162.16,39.76 C160.133333,37.5733333 157.946667,36 155.6,35.04 L155.6,35.04 L138.16,44.8 L138.16,48.32 C143.386667,49.3866667 146,52.8533333 146,58.72 L146,58.72 L146,107.2 C146,111.68 147.6,115.68 150.8,119.2 C151.973333,120.586667 153.333333,121.893333 154.88,123.12 C156.426667,124.346667 157.52,125.146667 158.16,125.52 C158.8,125.893333 159.28,126.186667 159.6,126.4 L159.6,126.4 L179.6,115.68 C179.6,117.6 180.586667,119.6 182.56,121.68 C184.533333,123.76 186.746667,125.333333 189.2,126.4 Z M292.96,126.4 C295.733333,126.4 302.826667,124.16 314.24,119.68 C325.653333,115.2 331.36,112.48 331.36,111.52 L331.36,111.52 L331.36,58.72 C331.36,50.5066667 328.906667,43.9466667 324,39.04 C321.44,36.48 319.093333,35.2 316.96,35.2 C316.868267,35.2 314.488704,36.3636373 309.821312,38.690912 L308.811008,39.195008 C308.347136,39.4266027 307.863467,39.6682667 307.36,39.92 C301.066667,43.0666667 297.813333,44.7466667 297.6,44.96 C297.066667,42.6133333 295.573333,40.4 293.12,38.32 C290.666667,36.24 288.96,35.2 288,35.2 C287.998539,35.2 287.996007,35.2006005 287.992404,35.2018015 L287.957936,35.2162132 C287.405887,35.4684181 281.606575,38.6630137 270.56,44.8 L270.56,44.8 L270.56,48.32 C275.786667,49.3866667 278.4,52.8533333 278.4,58.72 L278.4,58.72 L278.4,109.44 C276.693333,110.08 275.04,110.4 273.44,110.4 C267.146667,110.4 264,105.333333 264,95.2 L264,95.2 L264,45.76 C264,43.9466667 262.986667,41.9466667 260.96,39.76 C258.933333,37.5733333 256.746667,36 254.4,35.04 L254.4,35.04 L236.96,44.8 L236.96,48.32 C242.186667,49.3866667 244.8,52.8533333 244.8,58.72 L244.8,58.72 L244.8,107.04 C244.8,110.88 246.266667,115.066667 249.2,119.6 C252.133333,124.133333 255.146667,126.4 258.24,126.4 C261.333333,126.4 268.746667,123.093333 280.48,116.48 C283.786667,123.093333 287.946667,126.4 292.96,126.4 Z M305.28,110.72 C302.933333,110.72 301.093333,109.253333 299.76,106.32 C298.426667,103.386667 297.76,100.213333 297.76,96.8 L297.76,96.8 L297.76,50.4 C302.773333,50.5066667 306.4,51.4933333 308.64,53.36 C310.88,55.2266667 312,58.9333333 312,64.48 L312,64.48 L312,109.28 C309.866667,110.24 307.626667,110.72 305.28,110.72 Z M349.88,25.44 C350.84,25.44 353.453333,24.6133333 357.72,22.96 C361.986667,21.3066667 364.12,20.32 364.12,20 L364.12,20 L364.12,8.32 C364.12,6.4 363.453333,4.53333333 362.12,2.72 C360.786667,0.906666667 359.773333,2.27373675e-13 359.08,2.27373675e-13 C358.386667,2.27373675e-13 355.826667,0.826666667 351.4,2.48 C346.973333,4.13333333 344.76,5.12 344.76,5.44 L344.76,5.44 L344.76,15.2 C344.76,18.2933333 345.373333,20.7733333 346.6,22.64 C347.826667,24.5066667 348.92,25.44 349.88,25.44 Z M356.76,126.4 L372.92,117.28 L372.92,113.76 C368.546667,112.906667 366.36,109.226667 366.36,102.72 L366.36,102.72 L366.36,46.08 C366.36,44.16 365.346667,42.1066667 363.32,39.92 C361.293333,37.7333333 359.106667,36.16 356.76,35.2 L356.76,35.2 L340.6,44.32 L340.6,47.84 C344.973333,48.6933333 347.16,52.3733333 347.16,58.88 L347.16,58.88 L347.16,115.52 C347.16,117.44 348.173333,119.493333 350.2,121.68 C352.226667,123.866667 354.413333,125.44 356.76,126.4 L356.76,126.4 Z M425.36,126.4 L442.8,116.64 L442.8,113.12 C437.573333,112.053333 434.96,108.586667 434.96,102.72 L434.96,102.72 L434.96,54.24 C434.96,50.5066667 433.466667,46.4 430.48,41.92 C427.493333,37.44 424.293333,35.2 420.88,35.2 C419.386667,35.2 414.693333,37.44 406.8,41.92 C403.813333,43.6266667 402,44.64 401.36,44.96 C401.36,42.72 400.48,40.7466667 398.72,39.04 C396.96,37.3333333 395.546667,36.2933333 394.48,35.92 C393.413333,35.5466667 392.506667,35.2533333 391.76,35.04 C380.88,41.44 375.066667,44.6933333 374.32,44.8 L374.32,44.8 L374.32,48.32 C376.56,48.32 378.426667,49.6 379.92,52.16 C381.413333,54.72 382.16,57.76 382.16,61.28 L382.16,61.28 L382.16,115.52 C382.16,117.44 383.173333,119.493333 385.2,121.68 C387.226667,123.866667 389.413333,125.44 391.76,126.4 L391.76,126.4 L407.92,117.28 L407.92,113.76 C403.546667,112.906667 401.36,109.226667 401.36,102.72 L401.36,102.72 L401.36,51.68 L406.64,50.72 C410.053333,50.72 412.426667,52.2933333 413.76,55.44 C415.093333,58.5866667 415.76,63.1466667 415.76,69.12 L415.76,69.12 L415.76,115.52 C415.76,117.44 416.773333,119.493333 418.8,121.68 C420.826667,123.866667 423.013333,125.44 425.36,126.4 L425.36,126.4 Z M460.36,105.6 L476.52,96.48 L476.52,92.96 C472.146667,92.1066667 469.96,88.4266667 469.96,81.92 L469.96,81.92 L469.96,14.4 C469.96,12.48 468.946667,10.4266667 466.92,8.24 C464.893333,6.05333333 462.706667,4.48 460.36,3.52 L460.36,3.52 L444.2,12.64 L444.2,16.16 C448.573333,17.0133333 450.76,20.6933333 450.76,27.2 L450.76,27.2 L450.76,94.72 C450.76,96.64 451.773333,98.6933333 453.8,100.88 C455.826667,103.066667 458.013333,104.64 460.36,105.6 L460.36,105.6 Z M458.04,139.2 C458.733333,139.2 461.293333,138.373333 465.72,136.72 C470.146667,135.066667 472.36,134.08 472.36,133.76 L472.36,133.76 L472.36,124 C472.36,120.906667 471.746667,118.426667 470.52,116.56 C469.293333,114.693333 468.2,113.76 467.24,113.76 C466.28,113.76 463.666667,114.586667 459.4,116.24 C455.133333,117.893333 453,118.88 453,119.2 L453,119.2 L453,130.88 C453,132.8 453.666667,134.666667 455,136.48 C456.333333,138.293333 457.346667,139.2 458.04,139.2 Z" id="Youwin!" fill="#F8D34C"></path>
            </g>
        </g>
    </g>
</svg>